<svg xmlns="http://www.w3.org/2000/svg" width="214.121" height="318.439" viewBox="0 0 214.121 318.439"><path d="M30.829,419.043a5.768,5.768,0,0,0-5.418,4.618,55.573,55.573,0,0,0-1.275,6.176s-4.893,4.4,0,5.576S30.8,430,30.8,430l.75-10.986Z" transform="translate(-21.961 -154.571)" fill="#ffbe9d"/><path d="M91.38,300.352s15.287-51.336,16.845-53.545c2.567-3.659,27.314-14.661,27.314-14.661l6.668-13.536,41.1-6.61L193.5,225.119l28.648,21.054-2,72.615-1.067,50.7,5.426,63.3L94.4,432.546l5.885-13.336,6.176-115.124Z" transform="translate(-33.519 -120.105)" fill="#807f7f"/><path d="M112.473,301.535a1.376,1.376,0,0,1-.05-.417,8.1,8.1,0,0,0-.067-1.192c0-1.034-.092-2.5-.125-4.376-.067-3.7-.067-8.81.092-14.453s.458-10.744.742-14.436c.133-1.842.267-3.334.375-4.359l.125-1.184a2.3,2.3,0,0,1,.075-.408,1.234,1.234,0,0,1,0,.417,10.707,10.707,0,0,1-.05,1.184c-.058,1.1-.142,2.576-.242,4.376-.2,3.692-.45,8.785-.608,14.428s-.208,10.736-.217,14.436v5.568A1.475,1.475,0,0,1,112.473,301.535Z" transform="translate(-36.983 -128.215)" fill="#263238"/><g transform="translate(100.962 155.434)" opacity="0.3"><path d="M147.091,291.373a2.5,2.5,0,0,1,.475-1.609,4.168,4.168,0,0,1,4.859-1.2c2.175,1.042,3.259,3.542,3.7,5.918.475,2.6.408,5.284.9,7.885s1.667,5.251,3.959,6.593c2.826,1.667,6.535.917,9.5,2.317,4.418,2.075,5.443,7.818,5.668,12.7.417,9.244,0,18.5-.383,27.739l-2.551,59.029L170.9,440.362l-11.969,5.084L143.09,341.383Z" transform="translate(-143.09 -288.231)"/></g><path d="M151.136,275.73a.833.833,0,0,1-.308.167,2.1,2.1,0,0,1-1.017.1,3.492,3.492,0,0,1-2.717-2.376,6.285,6.285,0,0,1-.242-2.567,27.623,27.623,0,0,1,.483-2.876c.4-2.017.834-4.218,1.3-6.526.934-4.626,1.8-8.81,2.451-11.836l.833-3.576a8.826,8.826,0,0,1,.342-1.3,7.285,7.285,0,0,1-.175,1.334c-.175.925-.392,2.142-.658,3.609-.575,3.034-1.4,7.227-2.334,11.853-.475,2.309-.925,4.509-1.334,6.518s-.833,3.826-.342,5.276a3.334,3.334,0,0,0,2.451,2.3A2.9,2.9,0,0,0,151.136,275.73Z" transform="translate(-42.748 -125.59)" fill="#263238"/><path d="M156.243,258.7c0,.042-.342.042-.909.217a4.226,4.226,0,0,0-2.009,1.417,3.551,3.551,0,0,0-.617,3.417,3.717,3.717,0,0,0,6.893.55,3.542,3.542,0,0,0-.067-3.467,4.168,4.168,0,0,0-1.759-1.717c-.533-.267-.834-.317-.834-.358s.083,0,.242,0a2.55,2.55,0,0,1,.683.192,4.117,4.117,0,0,1,1.959,1.717,4.168,4.168,0,0,1,.575,1.742,3.684,3.684,0,0,1-.417,2.067,4.1,4.1,0,0,1-7.635-.608,3.659,3.659,0,0,1-.083-2.109,4.218,4.218,0,0,1,3.042-3.009,2.5,2.5,0,0,1,.708-.083A.651.651,0,0,1,156.243,258.7Z" transform="translate(-43.637 -127.875)" fill="#263238"/><path d="M151.831,319.663l-75.149-13.6-35.082,7.7,78.5,14.128Z" transform="translate(-25.231 -135.766)" fill="#807f7f"/><g transform="translate(16.369 170.294)" opacity="0.6"><path d="M151.831,319.663l-75.149-13.6-35.082,7.7,78.5,14.128Z" transform="translate(-41.6 -306.06)"/></g><path d="M116.2,345.775c1.017-13.853,4.818-49.035,7.668-62.63.834-4.068,1.834-8.227,4.168-11.669s6.451-5.96,10.552-5.326c3.667.567,6.618,3.542,8.1,6.943a24.589,24.589,0,0,1,1.892,10.894c-.708,16.8-2.159,35.624-2.142,51.2" transform="translate(-37.651 -129.105)" fill="#455a64"/><path d="M143.122,322.12a28.193,28.193,0,0,1-2.784.883,55.841,55.841,0,0,0-12.778,5.793,27.7,27.7,0,0,1-2.5,1.517,5.6,5.6,0,0,1,.592-.525c.4-.317.992-.742,1.742-1.25a44.39,44.39,0,0,1,6.193-3.434,43.148,43.148,0,0,1,6.668-2.392c.875-.233,1.592-.4,2.084-.492A3.048,3.048,0,0,1,143.122,322.12Z" transform="translate(-39.126 -138.44)" fill="#263238"/><path d="M144.584,302.939c0,.067-1.125.317-2.926.875a39.616,39.616,0,0,0-12.944,6.8c-1.475,1.167-2.334,1.967-2.384,1.917a3.562,3.562,0,0,1,.542-.625,20.581,20.581,0,0,1,1.667-1.525,33.379,33.379,0,0,1,6.143-4.168,33.8,33.8,0,0,1,6.91-2.709,21.479,21.479,0,0,1,2.192-.492A2.627,2.627,0,0,1,144.584,302.939Z" transform="translate(-39.338 -135.245)" fill="#263238"/><path d="M143.448,287.488c0,.075-.892.117-2.3.375a20.163,20.163,0,0,0-5.276,1.759,20.4,20.4,0,0,0-4.584,3.151c-1.059.967-1.667,1.667-1.667,1.609a1.864,1.864,0,0,1,.342-.533,11.728,11.728,0,0,1,1.125-1.3,17.5,17.5,0,0,1,10-5,12.311,12.311,0,0,1,1.717-.117A1.76,1.76,0,0,1,143.448,287.488Z" transform="translate(-39.885 -132.664)" fill="#263238"/><path d="M127.726,329.03a.25.25,0,0,0,0,.075V377.2c0,2.109-1.667,4.284-4.826,5.935a29.194,29.194,0,0,1-13.336,2.784h-.075c-11.377,0-18.179-4.493-18.179-8.719V329.105a.459.459,0,0,0,0-.075v-.092c0-4.7,3.476-9.61,6.96-14.461,2.334-3.234,2.892-7.9,3-10.636v-.892h-.317a2.5,2.5,0,0,1-2.709-2.325V298.59a2.5,2.5,0,0,1,2.709-2.342h17.087a2.751,2.751,0,0,1,2.5,1.425,2.142,2.142,0,0,1,.208.917v2.034a2.5,2.5,0,0,1-2.717,2.325h-.308v.892c.108,2.734.667,7.4,3.009,10.636,3.476,4.851,6.935,9.76,6.96,14.461A.124.124,0,0,1,127.726,329.03Z" transform="translate(-33.507 -134.131)" fill="#fafafa"/><path d="M127.681,328.993a3.628,3.628,0,0,0,0-.492,12.413,12.413,0,0,0-.175-1.434,18.772,18.772,0,0,0-1.992-5.218,70.386,70.386,0,0,0-4.918-7.46,15.179,15.179,0,0,1-2.234-5.176,27.855,27.855,0,0,1-.767-6.293v-.15h.15a3.167,3.167,0,0,0,1.809-.425,2.167,2.167,0,0,0,1.05-1.509c0-.642,0-1.367,0-2.059a2.075,2.075,0,0,0-.742-1.775,2.851,2.851,0,0,0-1.934-.633H101.167a2.834,2.834,0,0,0-2.217.783,2.017,2.017,0,0,0-.533,1.05,12.55,12.55,0,0,0,0,1.275v1.3a2.025,2.025,0,0,0,.517,1.084,2.834,2.834,0,0,0,2.309.833h.2v.208a29.057,29.057,0,0,1-.633,5.835,16.045,16.045,0,0,1-2.3,5.6c-1.175,1.667-2.384,3.334-3.5,5.1a27.5,27.5,0,0,0-2.834,5.61,12.72,12.72,0,0,0-.675,3.1c-.058,1.042,0,2.159,0,3.242v43.892a14.56,14.56,0,0,0,.133,2.792,5.485,5.485,0,0,0,1.309,2.351,12.97,12.97,0,0,0,4.476,3.092,25.363,25.363,0,0,0,5.168,1.542,35.4,35.4,0,0,0,5.259.592,35.884,35.884,0,0,0,10.119-.925,22.138,22.138,0,0,0,4.576-1.667,11.735,11.735,0,0,0,3.717-2.792,5.835,5.835,0,0,0,1.092-1.95,7.185,7.185,0,0,0,.183-2.209V363.342c0-10.6.05-19.171.067-25.139s.075-9.219.075-9.219a2.45,2.45,0,0,1,0,.608v8.61c0,5.951,0,14.536.067,25.139v13.9a4.667,4.667,0,0,1-.183,1.175A6.068,6.068,0,0,1,126.4,380.5a11.911,11.911,0,0,1-3.826,2.892,22.724,22.724,0,0,1-4.643,1.667,36.457,36.457,0,0,1-10.1.967,35.2,35.2,0,0,1-5.318-.592,26.046,26.046,0,0,1-5.259-1.567,13.12,13.12,0,0,1-4.634-3.159,5.785,5.785,0,0,1-1.409-2.5,14.168,14.168,0,0,1-.15-2.892V328.135a13.336,13.336,0,0,1,.7-3.2,27.723,27.723,0,0,1,2.884-5.7c1.117-1.775,2.342-3.451,3.517-5.109a15.836,15.836,0,0,0,2.225-5.468,29.338,29.338,0,0,0,.642-5.734l.192.192a3.226,3.226,0,0,1-2.592-.959,2.334,2.334,0,0,1-.608-1.292c0-.492,0-.9,0-1.35a12.268,12.268,0,0,1,0-1.342,2.409,2.409,0,0,1,.642-1.242,3.234,3.234,0,0,1,2.5-.9h16.72a3.184,3.184,0,0,1,2.134.717,2.367,2.367,0,0,1,.834,2.017v2.1a2.442,2.442,0,0,1-1.184,1.717,3.409,3.409,0,0,1-1.967.45l.133-.133c.075,4.393.925,8.46,2.909,11.344a68.759,68.759,0,0,1,4.868,7.5,18.07,18.07,0,0,1,1.934,5.276,11.257,11.257,0,0,1,.142,1.492,1.359,1.359,0,0,1,0,.483Z" transform="translate(-33.462 -134.094)" fill="#263238"/><path d="M118.842,304.1a65.351,65.351,0,0,1-7.6.217,65.562,65.562,0,0,1-7.61-.217,67.87,67.87,0,0,1,7.61-.217A67.642,67.642,0,0,1,118.842,304.1Z" transform="translate(-35.558 -135.399)" fill="#263238"/><path d="M126.517,342.721c-1.534-1-3.559-.558-5.209.225s-3.209,1.875-5,2.159a9.632,9.632,0,0,1-6.11-1.559,38.612,38.612,0,0,0-5.668-3.092,11.036,11.036,0,0,0-11.369,2.684V384.43s2.267,7.043,18.237,5.943,14.711-8.16,14.711-8.16Z" transform="translate(-33.815 -141.395)" fill="#807f7f"/><path d="M80.218,306.9a11.669,11.669,0,0,0-9.86-13.336,1.183,1.183,0,0,0-.834.092c-.342.233-.35.725-.317,1.134a14.17,14.17,0,0,0,11,12.5" transform="translate(-29.825 -133.679)" fill="#455a64"/><path d="M62.239,330.927c2.951,6.085,7.193,10.185,12.453,10.385,1.05,0,1.842-.658,2.842-.717a6.669,6.669,0,0,1,1.667.633,2.4,2.4,0,0,0,.834.2c5.434-.292,10.06-4.109,13.178-10.5,4.343-8.944,3-18.554-2.992-21.48a14.69,14.69,0,0,0-2.451-.959,10.327,10.327,0,0,0-2.976-.35,22.5,22.5,0,0,0-6.751,1.55l-.292.108c-4.876-2.15-8.76-2.167-12.5-.342C59.222,312.373,57.888,321.983,62.239,330.927Z" transform="translate(-28.242 -136.111)" fill="#807f7f"/><path d="M62.757,322.4a4.743,4.743,0,0,1-.5-1.8,9.669,9.669,0,0,1,3.042-8.227,4.694,4.694,0,0,1,1.55-1.042c0,.067-.55.45-1.342,1.259a10.777,10.777,0,0,0-2.309,3.684,10.552,10.552,0,0,0-.633,4.3A14.91,14.91,0,0,1,62.757,322.4Z" transform="translate(-28.659 -136.643)" fill="#fafafa"/><path d="M64.092,329.315c-.117,0-.317-.392-.442-.942s-.133-1.009,0-1.034.308.392.442.942S64.209,329.29,64.092,329.315Z" transform="translate(-28.886 -139.308)" fill="#fafafa"/><path d="M94.631,292c0,.075-1.117.508-2.809,1.525a21.954,21.954,0,0,0-2.8,2,24.593,24.593,0,0,0-2.959,3,25.006,25.006,0,0,0-2.35,3.5,22.068,22.068,0,0,0-1.4,3.142c-.658,1.85-.834,3.067-.942,3.051a3.868,3.868,0,0,1,.092-.833,6.507,6.507,0,0,1,.2-.992,12.615,12.615,0,0,1,.358-1.3,19.748,19.748,0,0,1,1.342-3.234,21.037,21.037,0,0,1,5.409-6.61,19.175,19.175,0,0,1,2.909-1.959,12.558,12.558,0,0,1,1.2-.608,7.616,7.616,0,0,1,.934-.392,3.66,3.66,0,0,1,.817-.292Z" transform="translate(-31.852 -133.425)" fill="#263238"/><path d="M39.714,315.3,30.27,434.425,118.288,455.7s30.706-10.411,31.123-11.119.533-123.359.533-123.359l-31.732,8.227Z" transform="translate(-23.344 -137.304)" fill="#807f7f"/><g transform="translate(6.926 177.996)" opacity="0.4"><path d="M39.714,315.3,30.27,434.425,118.288,455.7s30.706-10.411,31.123-11.119.533-123.359.533-123.359l-31.732,8.227Z" transform="translate(-30.27 -315.3)"/></g><path d="M194.364,142.074,189.455,211.6a21.671,21.671,0,0,1-21.621,20.146h0a21.671,21.671,0,0,1-21.671-23.088c.433-6.618.834-12.044.834-12.044s-16.829-2.617-17.037-19.446c-.117-9.719,1.559-31.773,2.992-48.669A22.071,22.071,0,0,1,155,108.3h10.16a31.148,31.148,0,0,1,29.206,33.774Z" transform="translate(-39.941 -102.84)" fill="#ffbe9d"/><path d="M150.38,212.956a40.63,40.63,0,0,0,21.913-6.476s-5.418,12.244-22.213,10.727Z" transform="translate(-43.292 -119.186)" fill="#eb996e"/><path d="M137.373,152.846c.3.317,2.117-1.034,4.709-1.025s4.476,1.3,4.759.984c.133-.142-.167-.7-.992-1.309a6.668,6.668,0,0,0-3.809-1.175,6.451,6.451,0,0,0-3.751,1.209C137.5,152.145,137.231,152.712,137.373,152.846Z" transform="translate(-41.17 -109.836)" fill="#263238"/><path d="M171,156.485a2.417,2.417,0,0,0,2.317,2.425,2.309,2.309,0,0,0,2.5-2.167,2.4,2.4,0,0,0-2.317-2.425,2.3,2.3,0,0,0-2.5,2.167Z" transform="translate(-46.775 -110.5)" fill="#263238"/><path d="M140.18,156.485a2.409,2.409,0,0,0,2.317,2.426,2.3,2.3,0,0,0,2.5-2.167,2.392,2.392,0,0,0-2.309-2.425,2.292,2.292,0,0,0-2.509,2.167Z" transform="translate(-41.644 -110.5)" fill="#263238"/><path d="M167.563,152.854c.3.308,2.125-1.042,4.709-1.034s4.476,1.3,4.759.983c.133-.142-.167-.7-.992-1.309a6.668,6.668,0,0,0-3.809-1.175,6.452,6.452,0,0,0-3.751,1.209C167.688,152.145,167.421,152.712,167.563,152.854Z" transform="translate(-46.197 -109.836)" fill="#263238"/><path d="M155.007,172.063c0-.142-1.592-.417-4.168-.75-.658-.075-1.284-.2-1.392-.65a3.334,3.334,0,0,1,.433-1.959l1.959-5c2.709-7.16,4.676-13.044,4.384-13.153s-2.726,5.609-5.434,12.769q-1.042,2.609-1.875,5.026a3.892,3.892,0,0,0-.342,2.592,1.667,1.667,0,0,0,1.092.967,4.492,4.492,0,0,0,1.117.158C153.374,172.2,155,172.213,155.007,172.063Z" transform="translate(-43.027 -109.874)" fill="#263238"/><path d="M163.793,178.51c-.417,0-.425,2.784-2.826,4.776s-5.393,1.667-5.418,2.075c0,.175.667.542,1.934.583A7.01,7.01,0,0,0,162,184.37a6.126,6.126,0,0,0,2.192-4.009C164.3,179.193,163.985,178.493,163.793,178.51Z" transform="translate(-44.203 -114.53)" fill="#263238"/><path d="M166.767,142.878c.258.7,2.834.367,5.835.734s5.493,1.192,5.893.567c.183-.3-.25-.967-1.234-1.667a9.9,9.9,0,0,0-4.368-1.525,9.794,9.794,0,0,0-4.593.542C167.217,141.994,166.659,142.544,166.767,142.878Z" transform="translate(-46.068 -108.27)" fill="#263238"/><path d="M137.8,143.935c.458.592,2.242,0,4.384-.05s3.951.4,4.376-.217c.175-.3-.108-.892-.9-1.442a6.318,6.318,0,0,0-7.052.217C137.847,143.043,137.6,143.651,137.8,143.935Z" transform="translate(-41.236 -108.327)" fill="#263238"/><path d="M200.29,163.894c.292-.125,11.569-3.417,11.2,8.085s-11.844,8.76-11.853,8.435S200.29,163.894,200.29,163.894Z" transform="translate(-51.543 -112.008)" fill="#ffbe9d"/><path d="M204,176.885c.05,0,.2.15.533.317a1.992,1.992,0,0,0,1.492.075c1.234-.408,2.317-2.3,2.434-4.376a6.477,6.477,0,0,0-.467-2.884,2.326,2.326,0,0,0-1.459-1.592,1.017,1.017,0,0,0-1.2.517c-.167.317-.1.55-.158.567s-.242-.2-.133-.675a1.334,1.334,0,0,1,.475-.708,1.517,1.517,0,0,1,1.117-.258,2.842,2.842,0,0,1,2.042,1.85,6.9,6.9,0,0,1,.592,3.234c-.15,2.317-1.409,4.443-3.084,4.876a2.159,2.159,0,0,1-1.825-.367C204,177.143,204,176.91,204,176.885Z" transform="translate(-52.269 -112.754)" fill="#eb996e"/><path d="M197.543,153.853c-1.75-.425-4.784,1.2-5.535,2.842s-.917,3.5-1.667,5.143-2.434,3.134-4.168,2.717a3.534,3.534,0,0,1-2.392-2.626,9.568,9.568,0,0,1,0-3.709c.675-5.376,1.8-10.7,2.017-16.112s-.55-11.036-3.392-15.645-8.06-8-13.461-7.568c-3.576.292-6.851,2.159-10.4,2.651a14.036,14.036,0,0,1-11.669-3.892c-.392-.383-2.184-1.575-2.184-1.575,0-.275.258-2.676,1.209-3.551,7.043-6.518,19.746-8.335,29.056-5.993s18.037,8.91,22.038,17.637,2.817,20.838.608,29.681" transform="translate(-42.395 -102.384)" fill="#263238"/><path d="M131.062,127.435c1.509,3.492,5.359,5.526,9.169,5.91s7.568-.6,11.227-1.667,13.486-2.667,17.3-2.551c.567,0,1.25,0,1.559-.475.4-.642-.242-1.417-.834-1.875-5-3.934-17.145-6.343-23.513-6.61s-13.044,2.5-16.5,7.827" transform="translate(-39.861 -104.813)" fill="#263238"/><path d="M133.37,124.8s44.176-14.17,63.247,24c0,0,2.851-9.56,2.851-14.686,0-3.417-2.042-23.8-23.013-30.215C176.454,103.9,144.856,91.848,133.37,124.8Z" transform="translate(-40.51 -101.75)" fill="#807f7f"/><g transform="translate(92.86)" opacity="0.4"><path d="M133.37,124.8a20.5,20.5,0,0,1,14.036-6.368c13.028-.583,37.4,6.743,49.177,30.365,0,0,2.851-9.56,2.851-14.686,0-3.417-2.042-23.8-23.013-30.215C176.454,103.9,144.856,91.848,133.37,124.8Z" transform="translate(-133.37 -101.75)"/></g><path d="M190.461,144.512a83.218,83.218,0,0,0-25.722-24.63c-10.119-6.343-26.9-12.611-38.458-15.687-3.467-.917-7.085-1.725-10.627-1.109s-7.01,2.967-7.885,6.451c-1.1,4.359,6.668,11.086,10.277,13.728a117.822,117.822,0,0,0,11.052,6.526s-.1-8.085,12.844-9.752C159.538,117.773,190.461,144.512,190.461,144.512Z" transform="translate(-36.23 -101.936)" fill="#807f7f"/><path d="M161.053,111.968a41.685,41.685,0,0,0-12.753-4.334,16.03,16.03,0,0,1,3.467-2.084,32.983,32.983,0,0,1,9.935,3.334Z" transform="translate(-42.996 -102.382)" fill="#fafafa"/><path d="M227.975,250.424s-12.069,13.795-10.736,32.99c.183,2.659.317,6.368.642,9.019,2.034,16.47,5.184,31.757,5.184,31.757h1.15L266.3,313.8s-6.343-36.533-7.8-41.384c-4.659-15.528-20.638-24.072-20.638-24.072Z" transform="translate(-54.456 -126.156)" fill="#807f7f"/><path d="M166.953,445.708v-9.494c0-6.143,0-15,.05-26.106.075-22.163.183-53,.308-87.785l.267.208-16,4.168-15.72,4.076.158-.208c.217,17.437.158,33.89.075,48.76s-.167,28.148-.233,39.25,0,20,0,26.172v7.068c0-1.667-.058-4-.108-7.068-.075-6.143-.125-15.07-.117-26.172s.092-24.388.142-39.25.1-31.323-.125-48.752V330.4l.167-.042,15.712-4.076,16.012-4.168.275-.075v.283c-.183,34.782-.342,65.63-.45,87.785-.075,11.069-.142,19.962-.183,26.105,0,3.059-.05,5.426-.067,7.043v1.834A1.009,1.009,0,0,1,166.953,445.708Z" transform="translate(-40.886 -138.426)" fill="#263238"/><path d="M147.838,219.533s-1.667,16.012,3.717,18.5c6.076,2.8,12.136.058,15.837-2.317,9.927-6.335,24.68-23.93,24.68-23.93l10,12.986s-25.189,30.273-30.248,30.073c-3.334-.125-8.46-3.334-11.669-5.593a21.672,21.672,0,0,1-4.643-4.393l-4.359-5.543a32.842,32.842,0,0,0-12.886,10.536s-1.45-11.211,1.159-16.3,7.81-13.861,7.81-13.861Z" transform="translate(-41.259 -120.07)" fill="#807f7f"/><path d="M139.018,236.644a1.043,1.043,0,0,1-.1.275c-.075.2-.183.458-.325.783a17.5,17.5,0,0,0-.742,3.184,49.8,49.8,0,0,0,0,12l-.3-.058a22.13,22.13,0,0,1,5.4-6.151,40.208,40.208,0,0,1,7.985-5.059l.133-.067.1.117c1.759,2.042,3.617,4.168,5.576,6.326a40.125,40.125,0,0,0,6.576,6.068,16.445,16.445,0,0,0,3.726,1.975,12.261,12.261,0,0,0,2,.542,8.185,8.185,0,0,0,2.017.075,12.686,12.686,0,0,0,6.9-3.434h0l17.245-18.387,5-5.276,1.342-1.392.35-.358.133-.108-.1.133-.333.383-1.292,1.434L195.4,235.01,178.277,253.5h0a18.547,18.547,0,0,1-3.217,2.3,10,10,0,0,1-3.917,1.25,9.167,9.167,0,0,1-2.134-.075,12.129,12.129,0,0,1-2.075-.558,17.137,17.137,0,0,1-3.842-2.025,40.309,40.309,0,0,1-6.668-6.135c-1.967-2.167-3.826-4.3-5.576-6.351l.242.05a40.544,40.544,0,0,0-7.918,5,22.088,22.088,0,0,0-5.293,6l-.25.433-.05-.492a47.8,47.8,0,0,1,.133-12.069,16.4,16.4,0,0,1,.834-3.176c.15-.35.283-.6.367-.775A1.988,1.988,0,0,1,139.018,236.644Z" transform="translate(-41.157 -122.719)" fill="#263238"/><g transform="translate(98.324 106.731)" opacity="0.3"><path d="M140.079,250.488a2.142,2.142,0,0,0,.617,2.442,2.034,2.034,0,0,0,2.075-.375,7.744,7.744,0,0,0,1.4-1.709,18.2,18.2,0,0,1,3.559-3.817c1.342-1.084,3.184-2,4.726-1.234a5.334,5.334,0,0,1,2.084,2.659c2.092,4.276,4.6,8.627,8.694,11.069s9.352,2.551,13.861.958a27.389,27.389,0,0,0,11.436-8.393,80.85,80.85,0,0,0,7.91-11.952c1.884-3.259,3.792-6.618,4.376-10.335-.517.292-1.734,2.167-2.25,2.459,0,0-19.429,21.4-21.254,22.5s-6.86,8.493-21.121-7.5l-4.718-5.118S142.488,246.5,140.079,250.488Z" transform="translate(-139.925 -229.8)"/></g><rect width="21.613" height="6.526" transform="translate(129.151 170.304) rotate(8.72)" fill="#fff"/><path d="M247.134,327.84l-33.34,8.06,3.851,31.448L153.8,415.3c-2.551.358-5.168.767-6.618,1.134-3.492.833-9.66,9.627-11.4,10.5l-12.444,9.6s-1.092,4.368,4.584,3.492,12-5.234,12.661-5.234,2.642,1.325,1.667,4.167c-.834,2.5-4.251,11.1-4.251,11.1l-4.226,7.752s18.27.6,23.338-6.176c3.467-4.6,14.17-17.645,14.17-17.645s75.157-36.974,79.667-44.718C257.086,378.742,247.134,327.84,247.134,327.84Z" transform="translate(-38.825 -139.392)" fill="#ffbe9d"/><path d="M250.468,388.71a20.767,20.767,0,0,0-.15-3.434,11.969,11.969,0,0,0-11.294-10.219,20.684,20.684,0,0,0-3.434.192,3.177,3.177,0,0,1,.9-.275,10.612,10.612,0,0,1,2.551-.225,11.853,11.853,0,0,1,11.577,10.485,10.624,10.624,0,0,1,0,2.559,3.184,3.184,0,0,1-.15.917Z" transform="translate(-57.529 -147.201)" fill="#eb996e"/><path d="M152.31,469.69a9.587,9.587,0,0,1-.433,2.1,22.5,22.5,0,0,1-1.85,4.859,9.685,9.685,0,0,1-3.517,3.842,5.284,5.284,0,0,1-1.475.6,1.257,1.257,0,0,1-.583.058,12.828,12.828,0,0,0,1.9-.917,10.469,10.469,0,0,0,3.334-3.793,29.049,29.049,0,0,0,1.892-4.743,12.3,12.3,0,0,1,.733-2.009Z" transform="translate(-42.355 -163.009)" fill="#eb996e"/><path d="M163.11,466.2a8.273,8.273,0,0,1-.642,2.025,39.918,39.918,0,0,1-2.184,4.651,40.583,40.583,0,0,1-2.767,4.334,8.666,8.666,0,0,1-1.367,1.667,12.769,12.769,0,0,1,1.117-1.809c.717-1.092,1.667-2.626,2.634-4.368s1.742-3.334,2.284-4.559A12.352,12.352,0,0,1,163.11,466.2Z" transform="translate(-44.303 -162.428)" fill="#eb996e"/><path d="M163.439,400.9a4.718,4.718,0,0,1,.15,1.067c.075.684.133,1.667.167,2.909a57.2,57.2,0,0,1-2.751,18.971c-.383,1.167-.717,2.109-.984,2.742a5.288,5.288,0,0,1-.442.975,4.809,4.809,0,0,1,.283-1.034c.217-.65.508-1.6.834-2.776a68.342,68.342,0,0,0,2.034-9.344,69.868,69.868,0,0,0,.7-9.535v-2.9a5.718,5.718,0,0,1,.008-1.075Z" transform="translate(-44.874 -151.556)" fill="#263238"/><path d="M142.54,412.91a22.245,22.245,0,0,1,1.05,2.625c.617,1.667,1.475,3.884,2.5,6.343s1.975,4.668,2.684,6.26a22.912,22.912,0,0,1,1.092,2.609,14.374,14.374,0,0,1-1.367-2.5c-.783-1.567-1.792-3.759-2.809-6.226s-1.825-4.743-2.367-6.41A15.257,15.257,0,0,1,142.54,412.91Z" transform="translate(-42.037 -153.555)" fill="#263238"/><path d="M126.163,438a2.181,2.181,0,0,1-.525.15l-1.525.367c-.667.158-1.475.342-2.434.5s-2.034.392-3.251.542-2.5.358-3.959.483-2.967.233-4.576.325a87.342,87.342,0,0,1-20.9-1.592c-1.575-.342-3.084-.642-4.468-1.025s-2.676-.717-3.842-1.075-2.217-.717-3.134-1.025-1.667-.608-2.325-.833l-1.459-.583a3.85,3.85,0,0,1-.5-.233,2.066,2.066,0,0,1,.533.15l1.484.508c.633.233,1.425.517,2.342.833s1.967.65,3.142.959,2.451.7,3.842,1.017,2.884.659,4.459.984a101.183,101.183,0,0,0,10.361,1.384,99.56,99.56,0,0,0,10.452.2c1.609-.083,3.134-.142,4.559-.283s2.742-.275,3.951-.425,2.292-.333,3.251-.483,1.775-.292,2.442-.425l1.542-.283A2.436,2.436,0,0,1,126.163,438Z" transform="translate(-30.502 -157.067)" fill="#263238"/><path d="M131.38,420.573a22.323,22.323,0,0,1-3.959-1.909,23.1,23.1,0,0,1-3.751-2.284,21.351,21.351,0,0,1,3.959,1.909A22,22,0,0,1,131.38,420.573Z" transform="translate(-38.895 -154.133)" fill="#263238"/><path d="M266.284,314.336l-.208.067-.617.167-2.384.608-8.969,2.217L223.1,324.9l-.225.05v-.225c-.875-5.726-2.075-11.9-3.234-18.337-.758-4.293-1.417-8.5-1.867-12.586s-.65-8.06-.708-11.844a63.968,63.968,0,0,1,.625-10.711,30.84,30.84,0,0,1,2.734-8.943,22.405,22.405,0,0,1,4.6-6.193,18.045,18.045,0,0,1,4.809-3.284,16.08,16.08,0,0,1,3.517-1.109l.95-.117a1.576,1.576,0,0,1,.325,0,1.467,1.467,0,0,1-.325.067l-.934.167A16.193,16.193,0,0,0,229.91,253a18.337,18.337,0,0,0-4.718,3.334,22.505,22.505,0,0,0-4.493,6.151,30.922,30.922,0,0,0-2.651,8.86A64.342,64.342,0,0,0,217.466,282c.067,3.767.283,7.718.733,11.794s1.117,8.277,1.875,12.561c1.15,6.426,2.342,12.611,3.217,18.337l-.258-.175,31.048-7.377,8.994-2.1,2.4-.542.625-.133A.991.991,0,0,1,266.284,314.336Z" transform="translate(-54.441 -126.697)" fill="#263238"/></svg>