<svg xmlns="http://www.w3.org/2000/svg" width="413.762" height="439.83" viewBox="0 0 413.762 439.83"><g transform="translate(0)"><path d="M57.53,413.6,75.5,438,45.24,460.52c-2-3,9.37-20.48,9.37-20.48L42.45,424.88Z" transform="translate(338.222 -29.08)" fill="#455a64"/><path d="M53.9,431.78a1.53,1.53,0,0,1,1.9.77,1.49,1.49,0,0,1-.75,1.9,1.62,1.62,0,0,1-2-.83,1.54,1.54,0,0,1,1-1.89" transform="translate(347.268 -29.08)" fill="#fff"/><path d="M72.99,438.06l-1.91-2.62L42.81,458.2s-.9,1.6,0,2.43Z" transform="translate(340.772 -29.08)" fill="#263238"/><path d="M60,440.26c.11.15.9-.33,2-.4s1.93.27,2,.11-.77-.85-2.07-.75S59.922,440.15,60,440.26Z" transform="translate(332.17 -29.08)" fill="#263238"/><path d="M62.513,443.94c.08.17.9-.06,1.87.19s1.6.81,1.75.69-.39-1-1.6-1.31S62.413,443.8,62.513,443.94Z" transform="translate(327.509 -29.08)" fill="#263238"/><path d="M68.134,449.08c.16-.07-.19-1-1.17-1.49s-1.91-.33-1.88-.16.78.28,1.57.73S67.974,449.17,68.134,449.08Z" transform="translate(322.919 -29.08)" fill="#263238"/><path d="M63.1,436.5c.17.09.69-.62,1.57-1.18s1.72-.79,1.71-1-1-.25-2.06.43S62.939,436.44,63.1,436.5Z" transform="translate(326.733 -29.08)" fill="#263238"/><path d="M54.924,311.46c-.54,3.06-1.4,29.09-1.95,42.82s.82,20.48,2.39,23.56,60.78,46.71,65.29,57.16l15-12.09s-22-39.49-31.38-46.67-27.43-13.77-27.43-13.77l5.13-75.19-24.59-1.34Z" transform="translate(267.668 -29.08)" fill="#263238"/><path d="M115.74,437.73,116,468l-37.71.52c.17-3.6,19.58-11.11,19.58-11.11l-1-19.41Z" transform="translate(261.882 -29.08)" fill="#455a64"/><path d="M85.463,455.66a1.54,1.54,0,0,1,1.09,1.74,1.49,1.49,0,0,1-1.72,1.1,1.63,1.63,0,0,1-1.14-1.85,1.53,1.53,0,0,1,1.91-.94" transform="translate(285.929 -29.08)" fill="#fff"/><path d="M116,468.11v-3.25l-36.25,1.88s-1.66.77-1.45,1.95Z" transform="translate(261.894 -29.08)" fill="#263238"/><path d="M93.539,457.27c0,.19.93.26,1.84.84s1.41,1.34,1.58,1.27-.12-1.14-1.24-1.82S93.459,457.1,93.539,457.27Z" transform="translate(265.633 -29.08)" fill="#263238"/><path d="M98.476,459c0,.18.77.48,1.4,1.25s.83,1.6,1,1.58.29-1.05-.52-2S98.476,458.79,98.476,459Z" transform="translate(256.696 -29.08)" fill="#263238"/><path d="M104.444,463.73c.17,0,.41-.89-.07-1.89s-1.36-1.39-1.43-1.24.46.69.85,1.52S104.264,463.71,104.444,463.73Z" transform="translate(248.579 -29.08)" fill="#263238"/><path d="M92.751,452.82c.08.17.92-.1,2,0s1.86.37,2,.21-.69-.8-1.92-.85S92.661,452.68,92.751,452.82Z" transform="translate(266.661 -29.08)" fill="#263238"/><path d="M75.412,282.83c0,1.77-2.87,46.58,11.78,79,0,0,5.07,10.14,6,14.57s19.88,77.91,19.88,77.91l21.9-.8s3.5-36.81,0-58.12-10-18.81-10-32.57,3.27-42.29,3.27-42.29,4.78-7.79,6.41-22.9c1.33-12.27-4.45-25.42-4.45-25.42l-5.71-10.11-48.31-2.53Z" transform="translate(244.46 -29.08)" fill="#263238"/><path d="M75.217,282.83V281.3c0-1.01.06-2.51.1-4.48.09-3.95.24-9.77.42-17.29v-.11h.12l48.31,2.46h.1l.06.09c1.77,3.14,3.72,6.57,5.72,10.11h0a64.709,64.709,0,0,1,3.47,11.1,49.43,49.43,0,0,1,1.21,12.19,75.391,75.391,0,0,1-2,12.69,51.571,51.571,0,0,1-4.63,12.57v-.1c-.83,7.46-1.6,15.19-2.25,23.15-.32,4-.6,8-.8,12.11-.1,2-.18,4.1-.19,6.17,0,1,0,2.07.06,3.1a28.779,28.779,0,0,0,.38,3.08,20.24,20.24,0,0,0,2.15,5.86c1,1.87,2,3.72,3,5.67a53.33,53.33,0,0,1,3.93,12.4c1.74,8.6,2.09,17.54,2.19,26.55,0,11.89-.56,23.57-1.54,34.86v.24h-.23l-21.9.8h-.21l-.05-.21c-6.35-24.61-12.27-47.61-17.49-68.29l-1.89-7.65c-.33-1.27-.54-2.53-.93-3.73s-.83-2.39-1.29-3.55c-.94-2.32-2-4.57-3-6.76l-.78-1.63a16.107,16.107,0,0,1-.74-1.64c-.45-1.11-.9-2.2-1.35-3.29a132.681,132.681,0,0,1-6.91-24.93,216.819,216.819,0,0,1-3.3-36.74c-.06-8.62.29-13.3.29-13.3v.86c0,.57,0,1.44-.06,2.56-.06,2.25-.1,5.57,0,9.88a222.455,222.455,0,0,0,3.33,36.71,132.6,132.6,0,0,0,7,24.84l1.34,3.27c.22.56.47,1.09.74,1.63s.53,1.09.79,1.64c1,2.19,2.06,4.44,3,6.77.47,1.17.92,2.36,1.31,3.58s.62,2.51.94,3.75c.63,2.52,1.26,5.06,1.91,7.65,5.31,20.66,11.22,43.66,17.55,68.27l-.26-.19,21.9-.81-.26.24c1-11.27,1.58-22.94,1.54-34.81-.1-9-.45-17.9-2.18-26.44a53.51,53.51,0,0,0-3.89-12.29c-.9-1.93-2-3.76-3-5.66a20.91,20.91,0,0,1-2.12-6,27.931,27.931,0,0,1-.39-3.15c0-1-.1-2.1-.06-3.13,0-2.08.09-4.15.19-6.2.2-4.1.49-8.14.82-12.12q1-12,2.27-23.17h0v-.06a51,51,0,0,0,4.65-12.42,75.549,75.549,0,0,0,2-12.6,49.112,49.112,0,0,0-1.18-12.08,65.652,65.652,0,0,0-3.39-11h0l-5.7-10.12.16.1-48.31-2.61.13-.11c-.24,7.51-.42,13.33-.54,17.28-.07,2-.12,3.46-.16,4.48S75.217,282.83,75.217,282.83Z" transform="translate(244.655 -29.08)" fill="#455a64"/><path d="M156.3,191.07s13-2.3,11.79,14.43c-.76,10-3.7,27.16-5.33,38.11-.56,3.79-1.8,10.57-6.81,14.55L120.05,283l-11.33-13.55,32.06-30.53,5-30.2Z" transform="translate(179.282 -29.08)" fill="#455a64"/><path d="M117.95,130.77a16.46,16.46,0,0,0-6.1,13.92c.2,2.56.91,5.47-.76,7.42s-4.87,1.88-6.45,3.86c-1.85,2.34-.3,5.82-1,8.73a5.92,5.92,0,0,1-6.29,4.39,23.09,23.09,0,0,0,11.44,5l3.28-4.09c-1.22,1.44-.89,3.73.28,5.2a9.7,9.7,0,0,0,4.72,2.8,29.29,29.29,0,0,0,25.65-4.17" transform="translate(216.102 -29.08)" fill="#263238"/><path d="M126.487,153.34c-.64-2-1.72-3.77-2.15-5.78-.92-4.33,1.19-9.21-.91-13.11-1.5-2.77-4.68-4.13-7.7-5.06s-6.24-1.71-8.49-3.92c-1.64-1.62-2.58-3.86-4.22-5.48-2.34-2.32-5.8-3.11-9.08-3.31a19.72,19.72,0,0,0-9.91,1.61,10.82,10.82,0,0,0-6.1,7.63c-.26,1.62-.06,3.33-.58,4.9-.56,1.72-1.91,3.06-2.75,4.67a8.68,8.68,0,0,0,2.17,10.4l23.18,29.94c4.87,1.84,16.67-.38,20.43-4S128.1,158.29,126.487,153.34Z" transform="translate(255.595 -29.08)" fill="#263238"/><path d="M90.134,142.09c1-6.8,6.13-14.83,12.88-13.59l20.84,7c2,.38.58,3.73.38,5.8l-4.53,47s2.82,2,3.82,1.62a.29.29,0,0,1,.34.43c-2.53,3.65-14.32,19.52-26.53,14.65-2.72-1.09.29-9.66,0-12.83l.36-8.11c.27-4.14.4-5.84.4-5.8s-8.62-2.12-9.55-13.65C88.074,158.9,89.074,149.64,90.134,142.09Z" transform="translate(242.838 -29.08)" fill="#ffbf9d"/><path d="M118.84,152.55a1.47,1.47,0,0,0,1.3,1.58,1.4,1.4,0,0,0,1.61-1.2,1.47,1.47,0,0,0-1.3-1.58,1.4,1.4,0,0,0-1.61,1.2Z" transform="translate(215.582 -29.08)" fill="#263238"/><path d="M104.651,153.44a1.46,1.46,0,0,0,1.29,1.58,1.41,1.41,0,0,0,1.61-1.2,1.47,1.47,0,0,0-1.3-1.58,1.39,1.39,0,0,0-1.6,1.2Z" transform="translate(243.971 -29.08)" fill="#263238"/><path d="M115.983,147.73c.16.27,1.52-.59,3.22-.34s2.79,1.41,3,1.2,0-.56-.49-1.09a3.89,3.89,0,0,0-5-.69C116.153,147.2,115.9,147.61,115.983,147.73Z" transform="translate(217.919 -29.08)" fill="#263238"/><path d="M100.253,149c.2.25,1.53-.72,3.36-.64s3.13,1.11,3.34.88-.09-.54-.66-1a4.41,4.41,0,0,0-5.35-.19C100.373,148.46,100.163,148.88,100.253,149Z" transform="translate(248.919 -29.08)" fill="#263238"/><path d="M114.881,159.77a9.94,9.94,0,0,0-2.52-.66c-.39-.07-.77-.18-.81-.46a2,2,0,0,1,.36-1.17c.45-.94.92-1.93,1.42-3,2-4.23,3.45-7.71,3.28-7.79s-1.92,3.28-3.9,7.5c-.48,1.05-.94,2-1.37,3a2.3,2.3,0,0,0-.33,1.56,1,1,0,0,0,.61.64,2.77,2.77,0,0,0,.67.14,11,11,0,0,0,2.59.24Z" transform="translate(228.561 -29.08)" fill="#263238"/><path d="M99.88,178.28a29.06,29.06,0,0,0,15.56-2.9s-4.45,7.7-15.76,5.76Z" transform="translate(241.052 -29.08)" fill="#ff9a6c"/><path d="M111.973,164.35a2.58,2.58,0,0,0-.8-1,2,2,0,0,0-1.36-.13,3.14,3.14,0,0,0-1.78.9,1.91,1.91,0,0,0-.45,1.88h0c.18.66,1.16,1,1.83,1.14a3,3,0,0,0,2-.41,1.75,1.75,0,0,0,1-1.3,2.15,2.15,0,0,0-.44-1.08Z" transform="translate(236.259 -29.08)" fill="#ff9a6c"/><path d="M113.387,162.14c-.25,0-.39,1.67-1.94,2.77s-3.35.77-3.38,1,.37.36,1.14.44a4.24,4.24,0,0,0,2.82-.75,3.67,3.67,0,0,0,1.52-2.33C113.647,162.58,113.507,162.14,113.387,162.14Z" transform="translate(234.525 -29.08)" fill="#263238"/><path d="M99.743,142.85c.13.43,1.71.35,3.54.72s3.28,1,3.55.61c.12-.17-.1-.59-.67-1.05a6.22,6.22,0,0,0-5.4-1C100.063,142.33,99.693,142.64,99.743,142.85Z" transform="translate(249.569 -29.08)" fill="#263238"/><path d="M115.238,142c.29.38,1.55.11,3,.21s2.73.45,3.05.1c.14-.17,0-.55-.55-.93a4.68,4.68,0,0,0-2.43-.77,4.55,4.55,0,0,0-2.48.53C115.308,141.44,115.108,141.8,115.238,142Z" transform="translate(219.634 -29.08)" fill="#263238"/><path d="M113.208,137.14c-1-1.62-2.94-2.45-4.74-3.14a104.891,104.891,0,0,0-24.14-6.15c-1,1.69-.08,4,1.47,5.23s3.55,1.72,5.4,2.41,3.76,1.77,4.53,3.6.12,4.24.84,6.22c1.23,3.42,6,4.52,7.19,7.93.92,2.59-.58,5.34-1,8.06a9.8,9.8,0,0,0,9.62,11.15q.84-14.69,1.69-29.36C114.238,141.05,114.318,138.85,113.208,137.14Z" transform="translate(258.095 -29.08)" fill="#263238"/><path d="M93.557,161.87c-1.55-1.39-3.49-2.59-4.1-4.57-.9-2.89,1.42-6.28-.08-8.91-1.36-2.4-5.37-2.27-6.64-4.72-1-1.92.15-3.61-.22-5.29s-2.77-3.15-4.47-2.95L64.707,154.8c-1.24,6.5-2.49,10-1.1,13.76a30.36,30.36,0,0,1,2.07,6.32c.3,2.2-.27,4.69-2.06,6,8,.63,15.48-3.55,22.4-7.6l7.29-4.28a5.23,5.23,0,0,0,2-1.68C96.4,165.54,95.1,163.25,93.557,161.87Z" transform="translate(297.465 -29.08)" fill="#263238"/><path d="M114.74,171.31a3.79,3.79,0,0,1-.86.17,7.49,7.49,0,0,1-2.49-.18,7.69,7.69,0,0,1-3.47-1.87,7.57,7.57,0,0,1-2.28-4.67,7.73,7.73,0,0,1,.26-3.07,12.67,12.67,0,0,1,1.48-3,11.51,11.51,0,0,0,1.53-3.08,3.94,3.94,0,0,0-.43-3.39c-.72-1-2.07-1.21-3.33-1.71a3.63,3.63,0,0,1-1.7-1.27,3.59,3.59,0,0,1-.55-2.09,22.81,22.81,0,0,1,.91-4.16,4.4,4.4,0,0,0,0-2,2.87,2.87,0,0,0-1.15-1.63,8.08,8.08,0,0,0-4-1.08,8.59,8.59,0,0,1-4.12-1.21A7.71,7.71,0,0,1,91.69,134a12.65,12.65,0,0,1-1-3.83,18.37,18.37,0,0,0-.78-3.6,8.16,8.16,0,0,0-1.88-2.83,9.24,9.24,0,0,0-5.53-2.5,9.14,9.14,0,0,0-5,1,11,11,0,0,0-3.08,2.34,14.529,14.529,0,0,0-1.9,2.73.542.542,0,0,1,.07-.21,5.571,5.571,0,0,1,.28-.58,10.37,10.37,0,0,1,1.39-2.02,11.18,11.18,0,0,1,3.1-2.45,9.3,9.3,0,0,1,5.09-1.13,9.5,9.5,0,0,1,5.81,2.55,8.46,8.46,0,0,1,2,3,18.619,18.619,0,0,1,.82,3.67,12.35,12.35,0,0,0,1,3.7,7.32,7.32,0,0,0,2.66,2.87,8.25,8.25,0,0,0,3.92,1.13,8.41,8.41,0,0,1,4.28,1.16,3.27,3.27,0,0,1,1.32,1.86,4.88,4.88,0,0,1,0,2.25,22.94,22.94,0,0,0-.9,4.08,3.09,3.09,0,0,0,.46,1.83,3.32,3.32,0,0,0,1.51,1.11c.59.25,1.23.42,1.85.68a3.9,3.9,0,0,1,1.65,1.19,4.43,4.43,0,0,1,.48,3.76,12.16,12.16,0,0,1-1.6,3.18,12,12,0,0,0-1.45,2.86,7.55,7.55,0,0,0-.28,2.92,7.36,7.36,0,0,0,2.14,4.52,7.55,7.55,0,0,0,3.34,1.88A8.37,8.37,0,0,0,114.74,171.31Z" transform="translate(268.912 -29.08)" fill="#455a64"/><path d="M96.107,157.54a1.7,1.7,0,0,1,.26.65,2.88,2.88,0,0,1-.34,2,3.13,3.13,0,0,1-1,1.07,3.19,3.19,0,0,1-1.71.46,4,4,0,0,1-3.5-2.23,5.31,5.31,0,0,1-.57-2.43,7.44,7.44,0,0,1,.56-2.64c.63-1.73,1.79-3.42,1.81-5.44a3.71,3.71,0,0,0-.93-2.75,4,4,0,0,0-2.9-.9,9.9,9.9,0,0,1-3.46-.36,3,3,0,0,1-1.42-1.2,4.32,4.32,0,0,1-.59-1.76,13.83,13.83,0,0,1,.29-3.56,7.57,7.57,0,0,0-.19-3.29,8.28,8.28,0,0,0-3.71-4.88,11.77,11.77,0,0,0-5.57-1.28,16.17,16.17,0,0,1-5.06-.8A10.61,10.61,0,0,1,64.5,126a10.48,10.48,0,0,1-2-2.52,7.41,7.41,0,0,1-.95-2.53,15.26,15.26,0,0,0,1.11,2.44,10.75,10.75,0,0,0,5.5,4.56,16.48,16.48,0,0,0,5,.72,12,12,0,0,1,5.74,1.28,8.68,8.68,0,0,1,3.94,5.05,8.11,8.11,0,0,1,.21,3.47,14.42,14.42,0,0,0-.29,3.44,3,3,0,0,0,1.73,2.59,9.41,9.41,0,0,0,3.29.33,4.43,4.43,0,0,1,3.21,1,4.09,4.09,0,0,1,1,3.07,7.92,7.92,0,0,1-.73,3c-.39.9-.82,1.74-1.15,2.58a7.21,7.21,0,0,0-.56,2.51,5.05,5.05,0,0,0,.5,2.28,3.71,3.71,0,0,0,3.21,2.12,3,3,0,0,0,1.59-.39,2.78,2.78,0,0,0,1-1,2.82,2.82,0,0,0,.41-1.87C96.207,157.77,96.077,157.55,96.107,157.54Z" transform="translate(298.205 -29.08)" fill="#263238"/><path d="M122.63,162.31a3.15,3.15,0,0,0,0,2.09,2.73,2.73,0,0,0,1.66,1.69,2.89,2.89,0,0,0,2.93-.8,2.66,2.66,0,0,0,.69-1.68,5.59,5.59,0,0,0-.31-2c-.42-1.35-1.29-2.82-1.16-4.59a6.47,6.47,0,0,1,2.44-4.62,7.42,7.42,0,0,1,2.49-1.31,11.329,11.329,0,0,1,2.84-.41,14.52,14.52,0,0,0,2.77-.29,3.68,3.68,0,0,0,2.15-1.33,4.48,4.48,0,0,0,.77-2.37,9.169,9.169,0,0,0-.2-2.46,18.55,18.55,0,0,1-.72-4.68,7.09,7.09,0,0,1,1.43-3.88,9.08,9.08,0,0,1,2.6-2.2,18.43,18.43,0,0,0,2.09-1.44,5.24,5.24,0,0,0,1.3-1.68s0,0,0,.14a2,2,0,0,1-.16.39,4.32,4.32,0,0,1-1,1.28,16.15,16.15,0,0,1-2.07,1.53,9,9,0,0,0-2.48,2.18,6.7,6.7,0,0,0-1.3,3.7,18.67,18.67,0,0,0,.75,4.57,9.551,9.551,0,0,1,.23,2.58,5,5,0,0,1-.86,2.61,4.12,4.12,0,0,1-2.4,1.51,15.251,15.251,0,0,1-2.85.31,11.119,11.119,0,0,0-2.74.38,7.28,7.28,0,0,0-2.34,1.23,6.06,6.06,0,0,0-2.29,4.29c-.14,1.61.66,3,1.1,4.45a6,6,0,0,1,.3,2.16,3,3,0,0,1-.81,1.87,3.17,3.17,0,0,1-3.26.83,2.92,2.92,0,0,1-1.74-1.88,2.88,2.88,0,0,1-.08-1.62A1.69,1.69,0,0,1,122.63,162.31Z" transform="translate(187.452 -29.08)" fill="#263238"/><path d="M77.57,240.64V229.58c-1.24-6.21-.65-13.57,2.24-19.24a103.559,103.559,0,0,1,6.94-10.55l11-14.29c6.06,4.41,15.55,1.22,23.69-1.74,0,0,8,4.45,11.78,8.63,3.93,4.4-9.51,59.45-9.51,59.45,6.09,12.18,13.95,23,15.14,34.1l-63.6,2.45,2.7-29.16Z" transform="translate(242.072 -29.08)" fill="#455a64"/><path d="M136.446,259.54a5.611,5.611,0,0,0,.05-1.25c0-.91,0-2,0-3.39-.05-3-.11-6.87-.18-11.18s-.2-8.32-.34-11.18c-.07-1.43-.14-2.59-.2-3.39a5.52,5.52,0,0,0-.16-1.23,6.351,6.351,0,0,0,0,1.24v3.39c.05,3,.12,6.87.19,11.18s.19,8.32.33,11.18c.07,1.43.14,2.59.21,3.39A5.279,5.279,0,0,0,136.446,259.54Z" transform="translate(184.076 -29.08)" fill="#263238"/><path d="M180.324,269.6s-6.2.34-10,2.74-10,6.14-12.55,10.77c-1.17,2.13,2.16,2.58,3.81,1.35s4.16-3.57,5.41-3.85l1.25-.29a83.385,83.385,0,0,1-3.81,7.56c-1.29,2-2.41,5.32,1.47,5.47,0,0,2.61,3.4,5.25.88,0,0,2.06,3.09,5.38-1.19,0,0,1.94,2.45,2.74,1.51s3.45-2.42,4.22-5.48a110.887,110.887,0,0,1,4-10.49Z" transform="translate(111.148 -29.08)" fill="#ffbf9d"/><path d="M342.853,183.66c-.69,0-29.08-3-29.08-3s-2.41-11.54-2.28-14.54,2.15-22.85,2.15-22.85l-10.63-5s-14.21,47.92-11.11,51.9,8.93,7.55,9.43,7.57,27.51,12,46.3,5.77S342.853,183.66,342.853,183.66Z" transform="translate(-190.191 -29.08)" fill="#ffbf9d"/><path d="M356.29,209.53c-4.18,4.15-11.38,7.6-23.4,4.6-23.76-5.94-41.57-11-48.65-14.8s-4.32-20.78-4.92-21.55c-1.79-2.32.18-7.3,2.73-8.08,7.27-2.2,19.92-1.33,20.56-.67,3.73,3.92.33,8.68.33,8.68l31.33,4.11a52.44,52.44,0,0,1,11.51.73" transform="translate(-178.748 -29.08)" fill="#455a64"/><path d="M346.045,182.55l-.75-.16c-.5-.09-1.24-.22-2.22-.34a51.51,51.51,0,0,0-8.55-.36h0l-31.32-4.2.15.35a8.39,8.39,0,0,0,1.44-5.15,6,6,0,0,0-.9-2.66,8.51,8.51,0,0,0-.86-1.14,1.62,1.62,0,0,0-.41-.22l-.36-.09c-.24-.06-.47-.08-.7-.13a62.108,62.108,0,0,0-11.69-.24,40.191,40.191,0,0,0-6.08.84c-.5.11-1,.26-1.52.39a3.76,3.76,0,0,0-1.43.84,7,7,0,0,0-1.77,2.72,6.87,6.87,0,0,0-.41,3.25,4,4,0,0,0,.63,1.6c.09.1.08.37.09.63v.8c-.07,2.15-.17,4.34-.11,6.54a27.8,27.8,0,0,0,1.51,9.18,9.091,9.091,0,0,0,2.6,3.83,8.93,8.93,0,0,0,2,1.18c.66.35,1.36.62,2,.94,2.74,1.17,5.49,2.13,8.2,3s5.37,1.71,8,2.48c10.46,3,20,5.43,27.94,7.42a53.771,53.771,0,0,0,5.76,1.19,30.9,30.9,0,0,0,5.25.28,21.89,21.89,0,0,0,8.19-1.78,18.85,18.85,0,0,0,4.5-2.8,11.714,11.714,0,0,0,1.34-1.27s-.46.44-1.41,1.19a19.589,19.589,0,0,1-4.52,2.7,22.11,22.11,0,0,1-8.11,1.67,30.42,30.42,0,0,1-5.19-.32,54.54,54.54,0,0,1-5.72-1.22c-8-2-17.46-4.46-27.89-7.52-2.61-.77-5.27-1.59-8-2.49s-5.44-1.85-8.15-3c-.66-.31-1.35-.58-2-.93a8.75,8.75,0,0,1-1.87-1.12,8.51,8.51,0,0,1-2.45-3.61,27.549,27.549,0,0,1-1.45-9.05c-.06-2.19,0-4.36.11-6.52V178a1.2,1.2,0,0,0,0-.24,1.419,1.419,0,0,0-.08-.18l-.05-.08a3.29,3.29,0,0,1-.54-1.37,6.26,6.26,0,0,1,.39-3,6.48,6.48,0,0,1,1.62-2.52,3.279,3.279,0,0,1,1.24-.73c.5-.13,1-.27,1.49-.39a39.883,39.883,0,0,1,6-.83,60.8,60.8,0,0,1,11.57.22,2.624,2.624,0,0,1,.68.12l.32.07a1.24,1.24,0,0,1,.2.1,7.441,7.441,0,0,1,.81,1.06,5.36,5.36,0,0,1,.84,2.45,8,8,0,0,1-1.34,4.85l-.2.31h.35l31.34,4h0a54,54,0,0,1,8.51.24c1,.1,1.73.21,2.23.28A2.787,2.787,0,0,1,346.045,182.55Z" transform="translate(-179.013 -29.08)" fill="#263238"/><path d="M.01,288.24H26.25V12a12,12,0,0,0-12-12H12A12,12,0,0,0,0,12V288.24Z" transform="translate(0 45.865) rotate(-60.9)" fill="#b0aeae"/><path d="M0,20H60.77a2.24,2.24,0,0,0,2.24-2.24V2.24A2.24,2.24,0,0,0,60.77,0H0V20Z" transform="translate(31.985 55.056) rotate(-60.9)" fill="#b0aeae"/><rect width="50.77" height="20" rx="3.24" transform="translate(67.01 71.861) rotate(-60.9)" fill="#b0aeae"/><rect width="27.42" height="31.06" transform="translate(48.109 46.65) rotate(-60.9)" fill="#b0aeae"/><path d="M217.61,59.86c-.07.12,47.3,26.62,105.78,59.18s106,58.86,106,58.73S382.1,151.15,323.6,118.58,217.68,59.73,217.61,59.86Z" transform="translate(-190.828 -29.08)" fill="#263238"/><path d="M209.792,259.41c-17.8,32-55.33,45-83.83,29.15s-37.2-54.65-19.4-86.61,55.32-45,83.83-29.15S227.582,227.45,209.792,259.41ZM122,210.55c-12.47,22.4-6.38,49.57,13.6,60.68s46.27,2,58.74-20.42,6.38-49.57-13.59-60.69S134.472,188.15,122,210.55Z" transform="translate(139.82 -29.08)" fill="#b0aeae"/><rect width="40.12" height="14.26" rx="6.52" transform="translate(195.191 162.642) rotate(-60.9)" fill="#b0aeae"/><rect width="40.12" height="14.26" rx="6.52" transform="translate(169.898 148.564) rotate(-60.9)" fill="#b0aeae"/><path d="M257.56,162c-.13-.07-3.18,5.3-6.83,12s-6.5,12.16-6.37,12.23,3.18-5.29,6.83-12S257.69,162,257.56,162Z" transform="translate(-45.748 -29.08)" fill="#263238"/><path d="M245.63,170.25c-.13-.07-3.11,5.06-6.67,11.44s-6.33,11.63-6.21,11.7,3.11-5.06,6.63-11.39S245.75,170.32,245.63,170.25Z" transform="translate(-22.208 -29.08)" fill="#263238"/><path d="M283.241,148.07c-.13-.07-3.24,5.27-6.95,11.93s-6.61,12.13-6.48,12.2,3.23-5.28,6.94-11.94S283.361,148.14,283.241,148.07Z" transform="translate(-96.879 -29.08)" fill="#263238"/><path d="M270.73,155.44c-.12-.07-3.17,5.24-6.79,11.86s-6.47,12-6.34,12.11,3.16-5.24,6.79-11.86S270.86,155.51,270.73,155.44Z" transform="translate(-72.158 -29.08)" fill="#263238"/><path d="M310.529,119.37a4.72,4.72,0,0,1-2-9.18,4.92,4.92,0,0,1,4.27-8.3,5.89,5.89,0,0,1,8.86-4.84,6.62,6.62,0,0,1,8.15-.18,4.71,4.71,0,0,1,4.17,8" transform="translate(-184.487 -29.08)" fill="#263238"/><path d="M316.09,101.53h-1A20.06,20.06,0,0,0,295.11,120c-.75,9.69-1.45,20.4-1.37,25.6.19,10.8,10.93,12.4,10.93,12.4l-.87,12.94,26.13-.85,2.17-46.9C333.02,112,327.29,102.15,316.09,101.53Z" transform="translate(-169.758 -29.08)" fill="#ffbf9d"/><path d="M307.37,158a26.13,26.13,0,0,0,14.09-4.17s-3.46,8.15-14.2,7.21Z" transform="translate(-172.548 -29.08)" fill="#ff9a6c"/><path d="M321.84,130.15a1.53,1.53,0,0,0,1.49,1.54,1.48,1.48,0,0,0,1.58-1.39,1.55,1.55,0,0,0-1.49-1.55,1.48,1.48,0,0,0-1.58,1.4Z" transform="translate(-190.578 -29.08)" fill="#263238"/><path d="M322.41,125.29c.19.2,1.36-.66,3-.66s2.87.82,3.05.62-.11-.45-.64-.84a4.21,4.21,0,0,0-2.44-.74,4,4,0,0,0-2.39.78C322.49,124.84,322.32,125.21,322.41,125.29Z" transform="translate(-194.728 -29.08)" fill="#263238"/><path d="M306.92,129.43a1.54,1.54,0,0,0,1.5,1.57,1.48,1.48,0,0,0,1.58-1.39,1.54,1.54,0,0,0-1.49-1.55,1.48,1.48,0,0,0-1.59,1.37Z" transform="translate(-160.748 -29.08)" fill="#263238"/><path d="M306.15,125.55c.19.2,1.36-.66,3-.66s2.87.82,3.05.62-.11-.45-.64-.84a4.21,4.21,0,0,0-2.44-.74,4,4,0,0,0-2.39.78C306.23,125.1,306.06,125.46,306.15,125.55Z" transform="translate(-162.208 -29.08)" fill="#263238"/><path d="M321.654,137.84a10.7,10.7,0,0,0-2.69-.48c-.42,0-.82-.12-.9-.41a2.16,2.16,0,0,1,.28-1.25l1.24-3.22c1.72-4.59,3-8.36,2.78-8.42s-1.73,3.59-3.45,8.17c-.41,1.13-.81,2.21-1.19,3.24a2.49,2.49,0,0,0-.21,1.66,1.06,1.06,0,0,0,.7.61,2.42,2.42,0,0,0,.71.1,11,11,0,0,0,2.73,0Z" transform="translate(-183.672 -29.08)" fill="#263238"/><path d="M306.941,119.19c.22.42,1.63,0,3.38-.1s3.21.23,3.37-.21c.07-.21-.24-.58-.87-.92a5.29,5.29,0,0,0-2.62-.54,5.08,5.08,0,0,0-2.53.78C307.1,118.59,306.841,119,306.941,119.19Z" transform="translate(-164.449 -29.08)" fill="#263238"/><path d="M321.888,118.48c.35.37,1.72,0,3.36,0s3,.25,3.35-.15c.14-.19-.08-.57-.69-.92a5.38,5.38,0,0,0-2.73-.61,5.26,5.26,0,0,0-2.67.77C321.928,117.91,321.738,118.29,321.888,118.48Z" transform="translate(-194.306 -29.08)" fill="#263238"/><path d="M291.2,115.1s2.82-6.75,6.07-8.33c3.93-1.92,5.63,2.39,9.38,1.33s7.5-2.89,11.34,0c4.2,3.16,2.24,5.39,2.52,10.17,1.1,19.36,4.66,24.82,5.63,15.7.11-1,2.88-1.8,3.28-6,.52-5.47.71-12.12-.53-16-1-3.27-2.91-5.53-6.26-8-5.3-3.92-12.56-4-17.49-3.47S290.726,106.66,291.2,115.1Z" transform="translate(-164.824 -29.08)" fill="#263238"/><path d="M288.566,133.67a2.92,2.92,0,0,1,3.14-2.83c2,.19,4.25,1.32,4.13,5.47-.21,7.36-7.56,5.63-7.57,5.41S288.446,136.75,288.566,133.67Z" transform="translate(-127.934 -29.08)" fill="#ffbf9d"/><path d="M290.793,139a1.625,1.625,0,0,0,.34.2,1.29,1.29,0,0,0,.95.05,3.16,3.16,0,0,0,1.55-2.81,4.219,4.219,0,0,0-.3-1.84,1.47,1.47,0,0,0-.94-1,.65.65,0,0,0-.77.33c-.1.2-.06.35-.1.36s-.15-.13-.08-.43a.74.74,0,0,1,.3-.45.94.94,0,0,1,.71-.17,1.8,1.8,0,0,1,1.31,1.18,4.32,4.32,0,0,1,.39,2.06c-.09,1.48-.89,2.85-2,3.13a1.35,1.35,0,0,1-1.16-.23C290.793,139.18,290.763,139,290.793,139Z" transform="translate(-128.771 -29.08)" fill="#ff9a6c"/><path d="M317.752,119.41a7,7,0,0,1-3.11,1.45,2.4,2.4,0,0,1-2.67-1.68c-.09-.51,0-1.11-.3-1.5s-1.15-.32-1.76-.25c-2.14.23-4.65-2.13-5.2-4.21a1.91,1.91,0,0,1-2.56.54,6.84,6.84,0,0,1-1.78-1.57,3.05,3.05,0,0,0-2.53-1.25,7,7,0,0,1-1.6.35c-1-.08-1.44-1.21-1.59-2.17s-.27-2.07-1.09-2.59a3.87,3.87,0,0,0-2.63-.07c-.89.14-2-.07-2.27-.94a1.76,1.76,0,0,1,.33-1.33,4.76,4.76,0,0,1,5.62-1.82,6.45,6.45,0,0,1,11.87-1.29,6.55,6.55,0,0,1,10.49,2.36,4.75,4.75,0,0,1,5.38,6.89,4.51,4.51,0,0,1,2.49,3.59c0,1.52-1.45,3-2.92,2.64a2.63,2.63,0,0,1-4.54,2.64" transform="translate(-157.31 -29.08)" fill="#263238"/><path d="M289.31,104.53v.14a1.129,1.129,0,0,0,.05.39,4.791,4.791,0,0,0,.54,1.42,5.33,5.33,0,0,0,1.63,1.73,4.92,4.92,0,0,0,3,.85l-.12-.16a2.63,2.63,0,0,0,.15,2,7.592,7.592,0,0,0,1.26,1.8,5.521,5.521,0,0,0,.83.85,2.75,2.75,0,0,0,3.53-.43l-.27-.08a5.51,5.51,0,0,0,2.35,3.81,4,4,0,0,0,2.42.79,7.44,7.44,0,0,0,2.38-.53l-.2-.09a5.83,5.83,0,0,0,1.75,2.27,3.08,3.08,0,0,0,2.56.69,4.06,4.06,0,0,0,3.12-3.18l-.17.08a3.87,3.87,0,0,0,2.53.36,4.17,4.17,0,0,0,1.76-.79,3.67,3.67,0,0,0,.82-.9,1.32,1.32,0,0,0,.18-.39,4.32,4.32,0,0,1-1.07,1.19,4,4,0,0,1-1.72.71,3.58,3.58,0,0,1-2.39-.38l-.14-.08v.16a3.8,3.8,0,0,1-2.94,2.94,2.81,2.81,0,0,1-2.33-.65,5.52,5.52,0,0,1-1.64-2.15l-.06-.13h-.14a7.049,7.049,0,0,1-2.27.5,3.71,3.71,0,0,1-2.24-.73,5.23,5.23,0,0,1-2.22-3.59v-.35l-.23.27a2.38,2.38,0,0,1-2.09.76,2.34,2.34,0,0,1-1-.38,4.869,4.869,0,0,1-.78-.79,7.33,7.33,0,0,1-1.24-1.72,2.39,2.39,0,0,1-.16-1.84l.06-.18h-.19a4.72,4.72,0,0,1-2.89-.77,5.24,5.24,0,0,1-1.62-1.65A5.52,5.52,0,0,1,289.31,104.53Z" transform="translate(-152.548 -29.08)" fill="#455a64"/><path d="M312.285,143.33c.06-.27,1.85.17,3.51-1.05s1.93-3.18,2.18-3.13.25.52.07,1.33a4.59,4.59,0,0,1-1.73,2.64,4,4,0,0,1-2.9.76C312.645,143.76,312.245,143.45,312.285,143.33Z" transform="translate(-174.283 -29.08)" fill="#263238"/><path d="M386.21,423.12l-7.1,24.19s-27,.9-28.73,5.25L396.84,468l12.62-37.25Z" transform="translate(-303.668 -29.08)" fill="#455a64"/><path d="M367.734,450.08a2,2,0,0,1,.59,2.6,1.92,1.92,0,0,1-2.57.61,2.11,2.11,0,0,1-.61-2.76,2,2,0,0,1,2.75-.34" transform="translate(-277.272 -29.08)" fill="#e0e0e0"/><path d="M364.5,450.81s-2.37.21-2.62,1.75L408.34,468l1.12-3.81-44.92-13.4" transform="translate(-315.168 -29.08)" fill="#263238"/><path d="M377.96,446.82c-.07.23,1,.71,1.9,1.81s1.15,2.25,1.39,2.23.33-1.44-.75-2.75S377.98,446.6,377.96,446.82Z" transform="translate(-303.188 -29.08)" fill="#fff"/><path d="M384.744,447.21c-.13.21.72.92,1.18,2.13s.33,2.31.56,2.37.8-1.17.21-2.67S384.814,447,384.744,447.21Z" transform="translate(-315.512 -29.08)" fill="#fff"/><path d="M391.458,452.12c.19.12.88-.91.71-2.34s-1.06-2.29-1.22-2.13.28,1,.4,2.22S391.238,452,391.458,452.12Z" transform="translate(-326.936 -29.08)" fill="#fff"/><path d="M374.424,441.49c0,.24,1.17.27,2.42.78s2.12,1.25,2.3,1.1-.51-1.28-2-1.87S374.364,441.27,374.424,441.49Z" transform="translate(-297.422 -29.08)" fill="#fff"/><path d="M236.925,423.33l10.11,23.1s-20.09,18-18.64,22.48l45.5-18-14.27-36.64Z" transform="translate(-46.043 -29.08)" fill="#455a64"/><path d="M241.457,438.9a2,2,0,0,1,2.12,1.61,1.93,1.93,0,0,1-1.58,2.12,2.12,2.12,0,0,1-2.24-1.72c0-1,.91-2.14,1.89-2" transform="translate(-27.175 -29.08)" fill="#e0e0e0"/><path d="M229.421,465.89s-1.68,1.69-.89,3l45.5-18-1.59-3.63-43,18.6" transform="translate(-46.179 -29.08)" fill="#263238"/><path d="M250.869,446.49c.09.22,1.24-.12,2.62.16s2.33,1,2.5.82-.67-1.32-2.34-1.63S250.729,446.3,250.869,446.49Z" transform="translate(-50.697 -29.08)" fill="#fff"/><path d="M255.655,450.35c0,.23,1.14.23,2.27.87s1.73,1.55,2,1.46-.14-1.41-1.55-2.18S255.575,450.14,255.655,450.35Z" transform="translate(-59.483 -29.08)" fill="#fff"/><path d="M263.67,457.13c.22,0,.09-1.26-1-2.25s-2.28-1.07-2.3-.85.88.62,1.73,1.45S263.44,457.2,263.67,457.13Z" transform="translate(-67.958 -29.08)" fill="#fff"/><path d="M252.935,441c.17.16,1.07-.54,2.36-1s2.42-.4,2.46-.63-1.21-.66-2.72-.16S252.755,440.84,252.935,441Z" transform="translate(-54.493 -29.08)" fill="#fff"/><path d="M259.34,296.43l15.94,64.66s28.75,48.4,33.62,72.62l-26.3,10.34s-19.13-46.65-24.74-55.21a68.929,68.929,0,0,0-8.66-10.67,16.65,16.65,0,0,1-4.37-7.56l-12.07-46.13Z" transform="translate(-85.488 -29.08)" fill="#263238"/><path d="M382.29,286.09s-2.22,17.32-18.89,25l-35.12,57.2s-2.75,18.6-8,34.27-15.86,45.87-15.86,45.87l-28.89-10.8,18.41-62.94,3-21.83,28.66-73,24.62-14.76Z" transform="translate(-201.648 -29.08)" fill="#263238"/><path d="M382.56,286.09l-.53-.36-1.59-1.06-6.24-4.12L350.54,265l-.08-.05-.08.05-24.64,14.73h0v.06l-28.72,72.93v.05c-.95,6.9-2,14.29-3,21.83h0c-5,17-10.3,35.19-15.78,53.93q-1.33,4.53-2.64,9l-.07.23.23.08,28.89,10.8.25.09.08-.25c5-14.51,9.84-28.48,14.41-41.73,1.15-3.31,2.28-6.59,3.22-9.87s1.79-6.54,2.56-9.76c1.52-6.44,2.74-12.73,3.7-18.83v.08l34.92-57.22-.06.05a32.61,32.61,0,0,0,11-8.38,34.65,34.65,0,0,0,5.4-8.66,35.629,35.629,0,0,0,2-6c.17-.68.27-1.21.33-1.57s.07-.54.07-.54a2,2,0,0,1-.11.53c-.11.35-.17.88-.36,1.57a36.6,36.6,0,0,1-2.06,5.92,34.89,34.89,0,0,1-5.42,8.57,32.65,32.65,0,0,1-11,8.28h0l-35.19,57.16h0v.05c-1,6.08-2.2,12.36-3.72,18.79-.77,3.21-1.61,6.46-2.56,9.73s-2.07,6.53-3.22,9.84c-4.59,13.25-9.42,27.22-14.44,41.72l.33-.15-28.89-10.8.16.31q1.3-4.47,2.64-9l15.76-53.94h0c1-7.54,2.06-14.93,3-21.83v.06l28.61-73-.08.09,24.6-14.79h-.15l23.66,15.48,6.3,4.06,1.62,1.05Z" transform="translate(-201.918 -29.08)" fill="#455a64"/><path d="M321.94,162.52s8.42,6.48,12.51,13.72c4.9,8.67,5.43,21.52,5.58,41.48.15,18.46-2.61,23.59-1.55,30.55,2.09,13.59,3.64,59.2,3.64,59.2s-27-10.37-32.24-15l-5.27-4.58-33.79,11.17,6.82-41.52,4.68-51.75,6-27.45,1-10.77,29.02-11.66Z" transform="translate(-156.768 -29.08)" fill="#455a64"/><path d="M291.251,167c-.35.07.83,2.44,2.91,5.92l.09.14.16-.06c2.93-1.14,6.81-2.57,11.05-4.12,4.78-1.74,9.1-3.36,12.19-4.62,1.55-.63,2.79-1.16,3.64-1.55a8.21,8.21,0,0,0,1.3-.64,7.12,7.12,0,0,0-1.38.46l-3.69,1.39-12.24,4.47c-4.24,1.55-8.11,3-11,4.24l.24.08C292.341,169.3,291.051,167.05,291.251,167Z" transform="translate(-157.609 -29.08)" fill="#263238"/><path d="M356.319,145.44s2.14-3.33,4.16-6.4,5.08-4.58,5.57-6.18,3.18-8.73,3.61-10.5a22.791,22.791,0,0,0,.52-5.22s-2.21-.94-3.27,2.22c-.64,1.9-2.68,8.35-3.12,8.67s-1-.15-1-.15a75.769,75.769,0,0,0,2.35-7.37c.1-1.17-.31-8.93-.31-8.93a2.34,2.34,0,0,0-2.66,1.49c-1.05,2-1.09,7-1.09,7l-1.59,5.58.56-5.52-.8-10.15a3.82,3.82,0,0,0-3.2,3c-.67,2.74.22,6.56-.23,7.37s-.94,5.71-.94,5.71-.55-11.9-1.82-12.24-2.31.92-2.13,3.32.23,7.48-.43,9.72-7.43,11-6.88,14.84a64.45,64.45,0,0,1,.63,7h11.6Z" transform="translate(-257.597 -29.08)" fill="#ffbf9d"/><path d="M353.625,175.41c-.65.25-28.36,7.11-28.36,7.11s-6.19-10-7.1-12.9-5.78-22.22-5.78-22.22l-11.71-1.1s3,49.89,7.24,52.58,11,4.05,11.44,3.9,29.95,1.9,45.5-10.35S353.625,175.41,353.625,175.41Z" transform="translate(-214.213 -29.08)" fill="#ffbf9d"/><g transform="translate(124.942 172.57)" opacity="0.3"><path d="M330.8,201.82a21.16,21.16,0,0,1-11.33,6.66c-7.35,1.62-23,4.49-23,4.49l.76-7.68,34-3.64" transform="translate(-296.47 -201.65)"/></g><path d="M369.6,191.26c-2.52,5.32-8.12,11-20.43,12.29-24.37,2.52-42.82,3.86-50.79,2.66s-11.14-18.07-12-18.59c-2.48-1.56-2.32-6.92-.18-8.52,6.08-4.55,18.27-8,19.09-7.63,4.85,2.41,3.27,8.05,3.27,8.05l30.9-6.82a52,52,0,0,1,11.07-3.22" transform="translate(-197.99 -29.08)" fill="#455a64"/><path d="M350.852,169.48a4.354,4.354,0,0,0-.76.1c-.5.1-1.25.22-2.21.43a51.51,51.51,0,0,0-8.16,2.58h0l-30.88,6.72.26.28a8.31,8.31,0,0,0-.4-5.33,5.91,5.91,0,0,0-1.74-2.2,8.06,8.06,0,0,0-1.21-.78,1.689,1.689,0,0,0-.45-.07h-.37a4.213,4.213,0,0,0-.71.12,62,62,0,0,0-11.07,3.75,41.53,41.53,0,0,0-5.43,2.86c-.43.28-.86.59-1.29.89a3.7,3.7,0,0,0-1.06,1.27,7.09,7.09,0,0,0-.74,3.16,6.78,6.78,0,0,0,.72,3.2,3.8,3.8,0,0,0,1.14,1.29c.12.06.2.32.3.56l.26.75c.66,2,1.32,4.14,2.12,6.2a28.109,28.109,0,0,0,4.54,8.16,8,8,0,0,0,6,3.14c.75.11,1.5.13,2.24.19,3,.18,5.88.14,8.73.06s5.64-.23,8.35-.4c10.87-.7,20.62-1.69,28.8-2.54a52.528,52.528,0,0,0,5.82-.84,31,31,0,0,0,5-1.52,22.06,22.06,0,0,0,7.09-4.46,18.9,18.9,0,0,0,3.28-4.17,11.8,11.8,0,0,0,.83-1.65s-.28.57-.92,1.6a19.791,19.791,0,0,1-3.33,4.07,21.84,21.84,0,0,1-7.06,4.34,31.722,31.722,0,0,1-5,1.47,54.188,54.188,0,0,1-5.8.79c-8.18.81-17.93,1.76-28.78,2.44-2.72.16-5.5.3-8.34.37s-5.75.11-8.69-.06c-.73-.07-1.48-.09-2.21-.2a8,8,0,0,1-2.14-.41,8.56,8.56,0,0,1-3.54-2.56,27.551,27.551,0,0,1-4.44-8c-.8-2-1.45-4.11-2.11-6.17l-.28-.78a1.239,1.239,0,0,0-.16-.39,1.383,1.383,0,0,0-.13-.22.8.8,0,0,0-.13-.13l-.07-.06a3.25,3.25,0,0,1-1-1.11,6.22,6.22,0,0,1-.66-3,6.62,6.62,0,0,1,.67-2.92,3.26,3.26,0,0,1,.91-1.1c.43-.29.84-.6,1.27-.87a39.839,39.839,0,0,1,5.36-2.83,61.379,61.379,0,0,1,10.95-3.74c.23,0,.46-.1.68-.12h.55a7.689,7.689,0,0,1,1.12.73,5.41,5.41,0,0,1,1.63,2,8,8,0,0,1,.39,5l-.09.35.35-.08,30.83-6.9h0a54.649,54.649,0,0,1,8.08-2.68c1-.23,1.69-.39,2.19-.49A4.524,4.524,0,0,1,350.852,169.48Z" transform="translate(-198.31 -29.08)" fill="#263238"/><path d="M345.35,189.17a6.55,6.55,0,0,0,2-.87,19.761,19.761,0,0,0,4.2-3.14,21,21,0,0,0,3.28-4.1,7.24,7.24,0,0,0,.95-2,44.3,44.3,0,0,1-4.59,5.69,40.938,40.938,0,0,1-5.84,4.42Z" transform="translate(-244.958 -29.08)" fill="#263238"/><path d="M153.844,271.53s-6.2.33-10,2.74-10,6.13-12.55,10.77c-1.17,2.13,2.16,2.58,3.8,1.34s4.17-3.56,5.42-3.85l1.25-.28a82.258,82.258,0,0,1-3.81,7.55c-1.29,2-2.41,5.32,1.46,5.48,0,0,2.62,3.4,5.26.88,0,0,2.06,3.08,5.38-1.19,0,0,1.93,2.44,2.74,1.51s3.45-2.42,4.22-5.48a107.058,107.058,0,0,1,4-10.49Z" transform="translate(164.108 -29.08)" fill="#ffbf9d"/><path d="M129.367,190a14.92,14.92,0,0,1,7.79,5.85c2.38,3.66,3.11,10,2.43,14.72-1.44,9.95-6,26.74-8.57,37.52-.88,3.72-2.69,10.38-8,13.91l-37.89,22.72L75,269.72l34.54-28.15,6.83-38.58Z" transform="translate(241.345 -29.08)" fill="#455a64"/><path d="M140.18,227.92a2.211,2.211,0,0,0-.12.39l-.32,1.17c-.27,1.06-.65,2.58-1.15,4.53-1,4-2.42,9.68-4.19,16.75a19.61,19.61,0,0,1-6.24,9.88,37.53,37.53,0,0,1-5.54,3.68L116.53,268,89.24,284.48l.35.08-3.65-5.41-6.48-9.63-.05.35,34.23-28.19h.06v-.07c2.26-9.51,3.9-17.3,4.94-22.72.51-2.71.87-4.82,1.1-6.26.1-.7.18-1.25.24-1.64s.07-.56.07-.56a4.708,4.708,0,0,0-.13.55c-.07.39-.17.93-.29,1.63-.27,1.43-.66,3.54-1.22,6.24-1.09,5.4-2.79,13.17-5.1,22.67l.07-.11L79.09,269.47l-.18.15.13.19,6.48,9.63,3.65,5.41.13.2.22-.12,27.25-16.53,6.08-3.69a38.28,38.28,0,0,0,5.58-3.71,19.87,19.87,0,0,0,6.31-10.11c1.71-7.09,3.08-12.82,4-16.79.45-2,.81-3.49,1.06-4.55l.29-1.23a2.916,2.916,0,0,0,.09-.4Z" transform="translate(237.082 -29.08)" fill="#263238"/><path d="M96.61,195.33a2.39,2.39,0,0,0-.77-.33,14.589,14.589,0,0,0-2.22-.5,13.15,13.15,0,0,0-7.39,1,14.74,14.74,0,0,0-5.52,5,9,9,0,0,0-1,2.05,2.36,2.36,0,0,0-.18.81,21.061,21.061,0,0,1,1.49-2.65A15.67,15.67,0,0,1,86.46,196a13.81,13.81,0,0,1,7.12-1.1C95.45,195.05,96.58,195.42,96.61,195.33Z" transform="translate(280.032 -29.08)" fill="#263238"/></g></svg>