<svg xmlns="http://www.w3.org/2000/svg" width="1366" height="1366.154" viewBox="0 0 1366 1366.154"><path d="M1086.363,1327.4l91.467,17.862-3.7,20.788h16.63l39.882-227.436,9.239,227.436h16.476l-3.08-76.684,41.884-1.232,4.312,77.917h8.161l-4.312-78.07L1366,1286.29v-16.322l-51.585,1.386-4-27.563,55.589,1.693v-8.161l-56.821-1.694-7.7-53.432,33.569-36.957,30.8,19.556v-9.855l-25.254-16.014,25.254-27.871V1098.89l-66.06,72.989c-3.541-20.172-12.319-71.6-16.014-93.315L1366,1092.577v-16.63l-40.96-7.083,9.7-61.132c10.933,2.31,21.4,4.466,31.259,6.468V997.414l-23.406-4.773L1366,962.921V936.282l-41.268,52.663L1271.3,977.858l22.79-159.836,71.757,12.935V803.239l-7.545-1.386,7.545-51.585V637.86l-8.315,56.974-76.376-18.478c3.849-20.172,14.012-73.6,17.862-93.931l66.829,12.627v-16.63l-43.116-8.161,34.031-185.244,9.085,1.694V358.839l-22.328-4.157,6.005-41.73,16.323-3.388v-8.315l-15.09,3.08L1364,212.245l1.848.308V6.829l-4.927,34.031L1309.8,43.94,1307.486.054h-8.161l2.464,44.5-43.424,2.618-2-47.119h-16.476l2,48.2-60.208,3.7L1190.765.054h-16.63l-8.777,50.353-90.851-24.176L1079.28.054h-27.717l-9.239,50.2L979.806,60.878,972.106.054H955.63L963.483,63.5,902.351,73.813,876.174,20.38C891.726,15.914,917.9,8.215,946.237.054H887.569L868.937,5.443,866.165.054H835.676l6.313,12.935c-9.547,2.618-22.328,6.159-34.955,9.7-2-5.543-4.773-13.7-8.007-22.79H790.4l8.777,24.946C783.937,29,770.386,32.853,765,34.393l-39.42-12.319L728.195.054h-8.315L717.724,19.61,667.37,4.058l1.386-4h-17.4L644.735,18.07,601.619.054h-15.09l-13.4,34.339-61.748-21.4Q515.31,6.521,518.775.054H499.681a340.692,340.692,0,0,1-30.027,44.5L462.263.054h-16.63l2,12.319L406.52,36.856,384.808.054h-9.547L426.23,86.44c-1.232.77-2.464,1.694-3.542,2.464-16.322,10.625-37.572,18.478-61.9,24.33L368.948.054h-8.161l-8.315,115.181c-8.931,2-18.17,3.542-27.717,5.081L315.823.054H299.347l2.926,40.652L203.876,28.7,203.26.054H186.784l.616,26.793-22.636-2.772L140.434.054h-11.7l22.79,22.328L68.677,12.373,70.217.054H61.9L60.516,11.295l-32.953-4L28.641.054H.924L0,6.829V212.553l70.833,12.935L83,284,0,301.248v8.315l24.792-5.235L32.8,365,0,358.839V386.71l36.032,6.775L8.623,579.653,0,578.113v16.63l6.159,1.232L0,637.86V750.268L22.328,599.055,99.474,613.53,78.994,817.406,0,803.239v27.717l72.527,12.935L0,936.282v26.486l71.911-91.775-19.71,137.2L0,997.414V1014.2c21.1,4.311,38.8,8.007,49.891,10.317l-8.315,58.514L0,1075.946v16.63l4.928.924L0,1098.736V1110.9l14.475-16.015,24.792,4.312-10.625,73.913L0,1154.94v9.7l27.409,17.4L19.4,1237.784,0,1237.168v8.161l18.17.616-3.388,23.405L0,1269.813v16.323l12.473-.308L.924,1365.9H28.487l11.241-78.84,31.259,4.158L61.748,1365.9h8.315l6.313-51.123,52.355,51.123h11.7l-62.672-61.44L79.3,1292.3l106.1,14.167,1.386,59.438H203.26l-1.386-57.282,94.239,12.627,3.234,44.656h16.476l-1.694-22.944,48.967-8.315-2.31,31.413h8.161l.616-9.393,5.544,9.393h9.547l-14.013-23.868.616-8.931,66.983-11.395,7.391,44.194h16.63l-23.1-138.586,116.721,8.931c-12.781,39.112-31.567,87.155-56.2,129.655h19.094a611.144,611.144,0,0,0,26.947-55.434l54.2,20.788-13.551,34.646h15.091l-5.389-2.31,27.255-69.755,49.891,11.7L651.356,1365.9h17.4l41.576-114.257,22.636-2.772-13.089,117.182h8.315l5.235-46.811,37.11-10.163,20.018,56.974h8.623c-7.7-21.712-17.246-48.967-20.788-59.13l24.945-6.775,32.337,65.905h30.489l-13.859-28.333L961.02,1304l-6.005,42.5-67.445,19.4h58.668c3.08-.924,6.005-1.694,9.085-2.618l.308,2.618h16.476l-.924-7.237c33.415-9.7,66.367-19.248,86.078-25.1l-6.006,32.337h27.717Zm-14.783-70.833-85.615-11.7,8.623-60.516,87.463,14.937ZM888.493,1149.705l5.851-33.261,91.005,17.092-4.62,31.875Zm89.927,31.875-3.7,25.869-60.208-8.623,6.005-26.947Zm-303.812-32.337-40.344-1.078,6.159-34.8,34.185,16.476a64.773,64.773,0,0,0-.77,9.547A41.93,41.93,0,0,0,674.608,1149.243Zm12.473,27.717a54.721,54.721,0,0,0,7.237,7.391l-30.8,40.5-29.1-49.429Zm-2.156-72.373-77.762-37.418,84.538-30.951,12.781,50.969A60.25,60.25,0,0,0,684.925,1104.588Zm-539.409-86.694,10.009-22.482,124.42-29.719-17.708,62.056Zm112.717,26.024-8.315,42.654-30.335-7.7,2.156-38.034ZM85,140.334c27.563,2,59.746,3.85,93.315,4.312l-.308,8.161L81,182.834Zm-33.569-19.4L60.67,69.039,149.827,80.28c-.924,9.7-3.388,34.031-4.62,46.811C109.483,125.706,76.838,123.4,51.431,120.932ZM262.852,230.261l10.625,94.393c-24.33,2.772-97.472,11.241-123.5,14.321l11.395-99.012Zm-85.308-68.677-2.618,60.67-20.634,2L135.2,220.714l-5.543-44.348Zm96.7,171.231,3.85,34.031L144.746,383.168,148.9,347.29Zm561.737-6.621-15.091,53.433-62.21,24.022C749.6,378.241,742.361,353.3,738.358,338.2Zm-85.462-51.585,47.735-5.851,5.235,33.877-49.121,6.005ZM987.813,622.153,930.069,608.6l28.8-90.081,49.583,9.239C1004.905,544.391,996.128,584.581,987.813,622.153Zm28.8-93.007,60.978,11.395L997.822,615.07ZM471.964,547.932,566.356,539l10.317,40.96-113.025,3.388Zm0-71.3,86.386,30.181,4,16.014-83.306,7.853ZM901.428,608.448l-15.4,48.2-67.291-26.639,18.016-45.117Zm-61.748-31.1,15.553-39.112c23.1,13.243,45.579,24.945,58.514,31.413L903.891,600.6Zm-44.04,66.367-31.567-26.793,38.034-53.895L821.971,577.5Zm-3.234,8.007-1.54,3.85-79.456,6.775-39.882-53.125,39.574-26.64Zm-89,13.859-67.137,38.65-15.4-60.824,43.885-29.411C671.99,623.693,695.4,654.8,703.4,665.577Zm-36.956-62.826c-3.388-4.312-9.855-12.473-14.475-18.324l33.107-23.868,19.4,16.476Zm-6.775,4.62-40.96,27.563-5.7-22.328,32.337-23.252ZM615.478,733.33l-72.219-21.4,54.2-49.737ZM534.02,709.155l-93.161-27.717L461.8,591.51l117.029-3.388,16.476,65.136Zm-101.322-174L419.917,426.9l36.494-5.389,14.475,109.945Zm-.77,16.476,31.413-2.926L448.25,613.53l-31.105-10.009ZM446.4,621.537l-13.4,57.59-34.339-10.163,16.322-57.436Zm-8.931,76.069L393.123,818.33l-32.953-13.7L394.2,684.671Zm7.853,2.31,42.654,12.627-18.324,54.818c-12.165-3.7-34.8-10.779-44.04-13.7Zm37.264,80.38c8.315,2.926,22.79,8.007,39.882,14.013l-26.947,61.748-36.648-4.311Zm2.464-7.853,18.478-55.281,63.288,18.786-15.245,59.746Zm89.619-34.031,45.271,13.551,18.786,74.375-79.456-27.871Zm63.6-25.869,34.955-20.172,17.092,60.978-44.656-11.395Zm42.346-24.484,30.181-17.4,76.839-6.622L746.365,767.361,699.707,755.5Zm101.63,33.723,36.8,12.319L805.8,782.913l-43.424-11.087Zm2.926-7.7,30.489-76.377L883.411,664.5l-23.868,74.374Zm101.168,30.8L955.014,757.2l-57.591,96.087L862.007,821.1Zm8.469-26.178,32.8-102.4,58.514,13.859c-5.851,26.947-11.241,51.277-13.7,62.98l-51.123,30.335Zm98.4-82.536,24.483,29.873-35.57,21.1Zm-74.375-82.228c-27.255-13.859-89.157-46.5-117.645-70.987a47.259,47.259,0,0,1-4-3.85l65.905-56.512L937,497.271Zm-99.32-115.489L797.95,397.181l25.407-9.855,27.871,23.714Zm-6.467,5.543-25.716,22.174C777.778,451.538,769,431.674,761.455,411.5l28.8-11.087Zm-22.482,51.431c12.627,10.933,31.105,23.1,50.353,34.493L825.205,569.49,749.29,514.518,784.4,489.264A77.441,77.441,0,0,0,790.558,495.424Zm4.927,62.672L757.76,611.528l-65.752-55.742,50.2-36.186ZM695.4,533.15l-14.629-48.659,36.34-17.4,15.245,39.574ZM678.3,476.483l-11.7-38.8,25.716-34.955,21.866,56.512Zm3.08,66.676-72.527,52.2L582.679,491.42l78.686-15.09Zm-100.86-59.592-30.8-122.418,74.067-9.085L658.9,468.322Zm-24.638,13.7-85.154-29.719-6.159-47.273,69.293-10.317ZM418.993,418.739l-4.928-40.96,108.251-13.243,9.547,37.572Zm-9.7-67.907-8.315-35.417L516.619,320.8l4.312,16.322Zm5.851,175.081L337.381,436.6l-3.234-48.967,63.6-7.853ZM331.068,360.379l-5.544-35.109c22.02-3.388,46.811-7.237,58.976-9.085l8.623,36.648Zm-5.082,28.179,3.08,46.042-34.493,3.388,1.232-45.58Zm5.7,53.895,82.228,94.393L291.647,548.394l2.618-102.4C305.352,445.07,325.216,443.069,331.683,442.453Zm82.69,110.869L346.928,790.612,313.821,771.98l70.371-215.887ZM355.551,820.485l84.384,35.263-9.393,28.179L348.16,846.2Zm44.964,1.078,22.02-60.054,44.348,13.7L445.17,840.2Zm55.435,37.88,37.264,4.466-8.469,55.281-39.574-27.1Zm45.887,2,28.333-64.52c22.328,7.853,47.889,16.784,69.909,24.484L575.287,947.831l-31.413,12.011-51.739-35.571Zm124.728,84.23,13.859,49.737-58.36,24.33L555.424,972.93Zm-42.192-1.386,23.56-120.262c13.4,4.62,25.1,8.777,33.415,11.7l20.018,79.148Zm65.906-184.32,91.159,23.252-23.56,31.105-50.353,14.32Zm99.936,25.562,86.078,22.02-95.933,48.813-15.244-37.726Zm63.442-.77,13.089-48.2,30.335,10.163-14.629,45.425Zm45.58,44.963,76.992,69.755-5.7,10.933c-38.958-7.545-73.143-14.012-91.467-17.554Zm44.347,29.1,60.054-100.09,41.576,7.545-65.29,125.652Zm110.253-91.159,13.243,2.464L1001.21,923.963c-20.788-4-42.038-8.161-62.364-12.011Zm4.62,103.632,67.445,16.168-8.161,51.277c-20.326-3.85-43.885-8.469-68.369-13.089Zm10.163,74.683,45.734,8.777-20.326,84.692-37.727-7.7Zm53.895,10.317,42.808,8.161-15.861,86.078-47.273-9.547Zm3.234-16.015,8.161-51.585,44.656,3.542-10.317,56.2C1118.238,946.445,1103.456,943.673,1085.747,940.286Zm9.393-59.746,5.543-34.493,45.272,6.313-5.851,31.875Zm6.775-42.654,8.315-52.817,46.349,8.315-9.393,50.815Zm-14.782,41.422-67.291-16.014,15.4-91.621,67.137,12.011Zm-141.2-151.521,82.228-48.813,60.824,74.529Zm89.311-53.125,106.866-63.6,23.868,29.1-107.019,63.288Zm-10.471-12.781L996.59,627.389l90.081-83.922,44.964,54.973ZM1089.9,483.1l-64.058-8.469c2-12.165,3.85-23.406,4.773-29.257l63.288,12.781Zm-1.232,8.161-5.39,33.723-63.6-12.011c1.232-7.391,3.08-18.786,4.927-30.335Zm-77.146,20.326-47.581-8.931,21.25-66.367,37.418,7.545ZM942.7,479.717,875.558,411.81l52.509-45.118,43.578,22.328ZM857.542,405.65l-28.8-24.484,15.86-56.051,97.935-12.011a59.841,59.841,0,0,0,6.005,14.475ZM819.815,300.632l-12.935-83.306,55.589-8.623,13.089,85.154ZM774.544,476.175l-35.262,25.407L698.168,395.025l28.179-38.188C735.74,389.79,753.14,443.685,774.544,476.175Zm-110.869-48.2-23.406-77.762,81.612-10.009c.462,2,1.078,4.158,1.694,6.467ZM650.74,321.266,624.409,324.5,579.6,252.589,650.894,241.5Zm-35.263,4.312-68.369,8.315,27.1-74.529Zm-81.458-3.542L497.371,180.524,575.6,208.087Zm-19.4-9.547-63.6-2.926-16.938-95.625,53.741-5.081ZM442.553,309.1l-43.424-2-20.48-87.925,47.119-4.466Zm-59.9-.924-58.514,8.931L318.595,282l56.2-7.545Zm-59.746,53.279L294.419,365l-3.85-34.339c6.313-.924,16.014-2.464,26.793-4.158ZM291.185,565.025l84.076-8.007-42.808,131.2L288.414,670.2Zm38.8,131.041-23.868,73.3L286.1,766.129l2.31-87ZM303.5,777.216l-19.248,59.13,1.54-62.056C291.647,775.214,298.885,776.446,303.5,777.216Zm7.7,2.772,33.415,18.786L309.2,923.5l-26.947-12.935,1.232-45.426ZM346,854.208l81.92,37.573-25.562,76.53-78.07-37.572ZM442.4,900.1l92.237,63.288-79.456,30.335-38.034-18.324Zm10.317,122.726,72.835,35.109-18.94,35.417-64.674-14.012Zm22.79-19.248,72.219-27.563,26.793,46.965-31.567,13.089Zm167.228-.154,10.625,38.188L597,1062.242l-44.194-21.4Zm-8.469-60.67,30.951-11.857,24.484,97.164-28.8,10.471Zm35.417-106.1,48.351-13.7,46.349,114.41-64.212,20.018Zm73.759,27.255,91.005-46.349L785.939,968.927Zm90.543,44.656L911.9,923.5l-14.937,84.23-89-18.016ZM910.2,1027.133l87.771,17.709-6.775,47.889-84.846-43.885Zm2.772-16.169,14.937-84.383L1012.6,942.9l-12.319,85.769Zm101.168,37.11,92.391,18.632-9.085,49.583-90.543-17.862Zm102.862,112.1,39.574,5.082-12.319,62.98-38.958-4.927Zm1.54-8.007,18.17-98.859,40.5,6.929-18.94,97.01Zm21.1-115.027,12.319-67.292c12.781,2.618,33.877,7.083,58.822,12.165l-14.629,64.674Zm15.4-83.306,15.244-83.152,97.781,13.7-12.935,90.235Zm12.165-186.322L1101.3,755.658l-37.264-45.58,107.02-63.288,15.86,19.4Zm34.954-93.623,67.907,16.476c-3.849,19.094-13.551,68.523-18.324,92.391l-68.369-12.319Zm-11.087-28.641-80.38-98.4,96.087,18.016ZM1099.3,528.068l16.168-100.706,114.719,16.63-20.48,104.864Zm61.594-110.715,9.393-67.291,75.453,14.167-12.473,63.6Zm5.543-95.933-30.951-5.851,9.855-55.743,31.259,3.388Zm-4.158,27.1c-2.618,18.786-7.237,52.2-9.393,67.6l-34.647-5.081,11.087-68.831Zm-42.962-35.878-59.13-11.087c0-1.232.154-2.31.154-3.542a61.817,61.817,0,0,0-4.927-23.868l55.743-33.569,15.245,32.8ZM1113,339.283,1095.294,450,987.813,428.44l22.944-71.6a59.837,59.837,0,0,0,41.422-28.949Zm-112.563-8.931a32.491,32.491,0,1,1,32.491-32.491A32.5,32.5,0,0,1,1000.44,330.352Zm-17.862,24.638-8.469,26.177-39.42-20.172,23.868-20.48A60.985,60.985,0,0,0,982.578,354.989ZM942.08,285.7l-58.206,7.083-13.243-85.308,62.21-9.7,27.409,56.05A59.881,59.881,0,0,0,942.08,285.7Zm-148.6-82.844-4.158-32.645L908.2,147.725l16.938,34.647Zm-2.772,17.092,6.313,40.806-47.427,5.7-4.466-39.42Zm-44.348,89.773-87.309,10.625.154-80.072,77.916-12.165Zm-84.538-86.386,28.025-100.4,34.493,13.089-19.864,80.688Zm-8.931,1.386-70.063,10.933,49.121-134.583,50.2,18.94Zm-74.529-24.33-40.19-14.167,14.167-50.661,43.116,17.862ZM530.478,183.45l-35.57-12.627L477.661,104.3,544.8,132.327Zm-46.965,9.239-112.1,10.779-5.081-36.186L471.348,146.34ZM372.8,266.448l-55.589,7.391-7.7-48.043,52.663-5.081Zm-62.364,16.63,5.7,35.263-26.331,4-4-36.032ZM284.718,278.3l-5.543-49.583,22.174-2.156,7.7,48.351Zm-5.543,115.951-1.232,45.117c-13.089,1.232-39.266,3.542-49.891,4.466l1.694-43.578ZM211.421,661.881l-1.386,36.956c-9.239-.308-31.259-1.078-40.5-1.54l1.694-38.342Zm-37.11-18.94,40.5-65.444-2.618,68.061ZM209.727,707l-1.694,43.885c-13.4-2.618-27.255-5.389-40.5-8.007l1.694-37.418Zm-2.31,52.2-6.775,54.973-42.808-11.087,8.623-51.893Zm-2.31,85.77,23.868,6.005-2.464,32.491L201.72,871.608Zm1.078-8.161,9.393-76.069,20.018,4-5.851,78.071Zm37.264-70.525,26.023,5.082-3.388,131.2-31.567-15.245Zm-27.255-13.7,1.694-45.117c10.625.616,39.112,2.31,53.125,3.08l-1.386,52.509C258.849,760.893,238.677,756.89,216.195,752.578Zm2-53.279,1.386-36.8,52.509,3.7-.924,36.032Zm2.156-53.125,3.08-80.226,51.431-3.7-2.31,87.617Zm3.388-88.541,1.232-32.183,50.815,1.386-.77,27.1Zm1.848-48.659L227.744,452l49.891-4.466-1.54,62.826Zm-78.224-98.55,74.375-9.085L220.044,444.3l-76.069-.77Zm72.373,41.884-2.156,56.359-79.918-2,5.543-54.973Zm-2.926,72.835-1.386,35.571L189.247,602.9l-54.357-68.831,1.078-11.241ZM184.782,610.45l-19.71,31.721-40.652-2.926,9.393-93.469ZM163.07,658.493l-3.7,82.844c-17.862-3.542-33.877-6.621-44.348-8.777l7.7-76.992ZM110.561,502.815,77.608,498.2l16.322-93.777,26.023,4.928ZM114.1,740.875l44.348,8.777-15.706,93.623-37.11-17.862Zm42.5,70.217,43.116,11.241-5.543,45.58L150.6,846.971Zm41.422,89,88.387,42.654-4,14.013L159.682,986.019Zm95.933,46.2,43.424,20.942-19.094,65.29-47.889-4Zm58.36,28.179,37.418,18.016L362.326,1106.9l-47.119-4.928ZM417.3,1120.91l-4,20.942-109.021-3.08,8.469-28.8Zm-46.811-13.243,26.793-111.639,40.19,19.4-18.632,97.318Zm69.909-20.172,116.1,25.1-4.158,33.26-122.418-3.542Zm74.529,7.7,18.016-33.569,40.344,19.4-14.32,23.714Zm50.045,15.552,15.861-26.024,51.739,24.946-6.775,38.188-65.29-1.848Zm168.46-3.849a32.491,32.491,0,1,1-32.491,32.491A32.5,32.5,0,0,1,733.43,1106.9Zm16.322-24.946a57.279,57.279,0,0,0-16.322-2.31h-2.464L702.017,965.231l65.29-20.326,14.628,36.186Zm53.125-76.531,91.159,18.478-1.386,8.008-110.715,72.681a63.8,63.8,0,0,0-8.007-9.085Zm87.771,37.572-18.324,103.94-79.456-13.551a57.606,57.606,0,0,0-6.621-21.712Zm21.866,127.346-6.159,27.255-72.989-10.471,14.013-27.717Zm-16.784-62.056,9.085-50.969,85.154,44.039-3.388,24.176Zm189.247,74.837-88.079-15.09,8.777-61.594,90.081,17.708Zm41.884,135.353-37.573-7.391,14.629-79.764,38.8,4.927ZM1180.6,1329.1l-37.726-7.391,23.868-122.726,35.262,7.854Zm22.944-130.425-35.108-7.7,24.946-127.961,32.953,5.7Zm102.4,72.681-53.433,1.54-1.386-35.263L1294.4,1189.9C1297.015,1208.527,1303.328,1252.721,1305.946,1271.353Zm-13.089-91.929-42.192,46.5-6.313-154.293,30.8,5.236Zm25.716-174.927-9.855,61.594-104.4-17.862,14.475-64.52C1249.741,990.177,1285.466,997.568,1318.573,1004.5Zm-49.429-128.27-97.472-13.551,11.857-64.366,94.393,16.938Zm32.183-84.692-41.576-7.391,8.469-42.962,40.806,8.161Zm40.806,7.391-32.8-5.851,7.853-42.192,31.105,6.313ZM1355.067,711l-5.543,38.034-79.61-16.014,8.007-40.806Zm-81.92-36.8-67.907-16.476,17.554-89.927,68.215,12.781Zm41.576-105.634-88.849-16.63,14.782-76.069,87.772,17.708ZM1359.84,49.175l-9.393,65.752-36.648-.616-3.388-62.056Zm-46.5,81.612,34.646.616-18.632,129.809-28.025-.154ZM1300.71,269.22l27.563.154-11.549,80.38-23.1-4.312ZM1285.466,343.9l-15.4-2.926-8.623-211.113,43.578.77ZM1302.1,52.717l3.388,61.44-44.656-.77-2.31-57.9Zm-40.19,314.437,86.848,16.322-18.786,101.938L1242.2,467.706Zm-8.315-29.257L1174.6,323.114c3.08-17.862,8.315-48.351,10.163-58.976l66.214,7.083Zm-3.08-75.145-103.94-11.087,7.7-44.348,93.777-.924Zm-70.217-202.49,61.9-3.85,2.464,60.978-74.375-.616ZM1168.9,124.936l76.068.616,2.926,72.835-92.083.924Zm-95.933-90.543,90.851,24.176-9.855,55.743-91.005-26.793Zm79.764,88.079-21.558,122.572L1062.034,95.679Zm-96.087.616,50.969,109.945-56.05,33.723a60.7,60.7,0,0,0-17.862-18.632ZM1040.63,58.876l-33.107,179.854c-2-.154-3.85-.308-5.852-.462L980.73,68.885ZM964.561,71.657,985.5,240.116a3.624,3.624,0,0,1-1.232.308L906.2,81.512ZM849.535,28.079l54.973,112.1L850.3,150.5,812.578,38.4ZM804.571,40.552c7.853,23.1,31.259,93.007,37.572,111.331l-53.895,10.163L775.36,60.325l-1.432-11.3ZM777.162,205.47,713.1,215.479,731.89,139.1l38.65,14.629Zm-7.7-60.978L692.47,115.235l18.17-39.728L763.149,94.6ZM722.343,38.242l35.108,10.933,4.62,36.186L713.566,67.807Zm-60.67-18.786L714.49,35.778l-9.855,32.953-19.71,43.424-50.2-19.094ZM593.15,5.443l48.813,20.326-10.471,28.8L580.831,37.01ZM575.6,52.563l50.2,17.4-27.563,75.761-43.578-18.17ZM502.453,27.309,567.9,49.945l-20.942,74.529L474.889,94.6,468.73,70.887C481.049,57.8,492.136,43.016,502.453,27.309ZM410.678,43.94,449.174,21,455.8,60.724a206.183,206.183,0,0,1-22.79,20.942Zm20.942,58.822a178.78,178.78,0,0,0,23.714-18.478l14.013,54.2L365.252,159.274l-4-28.949C388.812,123.7,412.987,114.773,431.62,102.762Zm-78.378,29.1L363.4,204.238,254.383,214.709l-5.389-70.679C285.334,142.182,321.212,138.486,353.241,131.865ZM303.658,57.49l4.774,65.136c-32.491,4-67.6,5.543-102.092,5.7l-2-82.844Zm-62.98,86.693,5.543,71.141-62.98,6.005,3.234-76.531C204.338,144.954,222.508,144.8,240.678,144.184Zm-78.07-103.94,25.254,3.08.77,33.569-29.873-3.7C159.682,65.806,161.53,49.945,162.608,40.244Zm26.331,44.964,1.078,42.962c-12.319-.154-24.638-.308-36.494-.77l4.466-46.2ZM25.254,23.46,154.6,39.166l-3.85,32.953L20.634,55.8ZM19.4,63.958l33.107,4.158L43.27,120.162c-13.089-1.232-23.714-2.464-31.413-3.388ZM70.063,208.7.462,195.923,9.547,133.1c14.013,1.694,37.726,4.312,67.291,6.621Zm9.855-17.092,41.73-12.935,5.082,40.344L78.07,210.089Zm-.462,35.57L144.9,239.192l-16.63,143.976-17.246-3.234Zm-46.5,75.607,51.585-10.779L102.4,378.087,41.268,366.538ZM24.638,582.733,52.047,396.565l33.877,6.313L53.587,588.122Zm37.11,6.929L76.376,506.2l33.569,4.774-8.623,86.078Zm40.19,264.084,81.3,39.112-54.973,123.5L79.3,1012.2ZM76.992,1028.519l128.577,10.933-2.156,38.034L68.523,1088.111ZM202.8,1085.8l-2.926,50.045-33.569-.924v-46.2ZM67.291,1096.426l90.851-7.237v45.272l-95.933-2.618Zm48.505,184.32-73.6-9.855,11.087-77.3,69.6,9.547Zm-61.286-95.317,3.85-26.331,68.523,2-3.08,34.03Zm94.393,99.782-24.946-3.387,7.083-77.454,25.716,3.541Zm8.623-85.462-25.869-3.542,3.234-34.8,26.485.77Zm36.648,91.467-28.949-3.85,7.853-77.916,26.639,1.54Zm-20.326-89.927,4-38.8,106.866,3.08,3.08,42.192Zm28.487,91.005,5.7-80.842,80.38,4.619,6.467,88.7Zm85-153.985-70.987-2,2.772-48.967,77.3,19.71Zm-29.411-49.737,8.623-44.039,47.119,4-14.783,50.507Zm43.27,77.454,111.793,3.234,4.774,28.8-113.487,9.7Zm3.542,49.737,114.257-9.7,6.929,41.73L307.97,1260.574Zm8.777,119.03-4.312-57.744,119.338-12.935,8.315,49.583ZM437.779,1219l-8.161-49.429,144.438,4.157c-3.08,12.473-8.315,31.567-15.552,54.511ZM603,1323.554l-54.049-20.634c3.388-8.161,6.621-16.168,9.547-24.175l56.82,13.4Zm-38.8-60.208a904.047,904.047,0,0,0,26.639-89.157l33.877.924,33.261,56.666L623.485,1277.2Zm114.719,26.947-46.811-10.932,32.029-42.192,29.565,12.165Zm17.708-48.659-27.255-11.241,31.259-41.114a54.9,54.9,0,0,0,12.781,6.313Zm16.938,1.54,16.014-44.04a30.913,30.913,0,0,0,3.85.154,59.543,59.543,0,0,0,18.94-3.08l19.4,39.42Zm20.788,67.291,6.929-62.672,34.185-4.466,24.175,49.275Zm66.521-77.454-25.254-51.431a59.324,59.324,0,0,0,16.63-31.721l46.812,8.007Zm47.735,97.164-14.32-29.1,47.735-13.7,7.7,29.873Zm113.641-35.262-64.674,20.018-7.7-29.719,76.839-22.02Zm7.083-49.429-142.282,40.652-21.558-43.886,24.021-47.427,144.13,20.788Zm2.772,95.933,11.4-80.226,40.036,5.544-9.393,62.518Zm88.541-25.87-37.726,10.933,8.931-58.976,36.8,5.082Z" transform="translate(0 0.1)" fill="#3c3c3c" opacity="0.043"/></svg>