<svg xmlns="http://www.w3.org/2000/svg" width="90.218" height="110.421" viewBox="0 0 90.218 110.421"><g transform="translate(-528.243 -62.549)"><path d="M600.17,137.83l-7.9-1.64,10-48.11a10.55,10.55,0,0,0-1.56-7.24c-12.59-17.43-33.07-10.35-36.21,4.71l-9,43-7.9-1.65,10.09-48.42a17.23,17.23,0,0,1,8.93-11.79c25.44-13.11,46.79,7.27,42.44,28.16Z" fill="#e0e0e0"/><path d="M600.17,137.83s.05-.3.17-.86.28-1.41.5-2.5l2-9.57c.86-4.15,1.9-9.22,3.11-15.11l2-9.42c.62-3.34,1.65-6.84,1.69-10.62a26.079,26.079,0,0,0-2.46-11.46c-.22-.46-.43-.94-.66-1.4l-.8-1.35a26.809,26.809,0,0,0-1.79-2.61c-.32-.44-.7-.82-1.05-1.23a11.237,11.237,0,0,0-1.1-1.19,24.441,24.441,0,0,0-2.48-2.16,26.8,26.8,0,0,0-5.78-3.45l-1.61-.6L591,64l-.84-.22-1.69-.44c-.58-.13-1.16-.19-1.74-.29a26.518,26.518,0,0,0-29.24,18.47c-.73,2.55-1.2,5.22-1.77,7.88-2.22,10.67-4.53,21.72-6.88,33-.32,1.51-.63,3-.94,4.51l-.15-.23,7.9,1.65-.22.15c1.78-8.55,3.53-16.92,5.22-25q1.27-6.09,2.51-12l1.22-5.86a21,21,0,0,1,2.08-5.54,19.11,19.11,0,0,1,8.32-7.72c.43-.19.84-.42,1.29-.57l1.32-.46a19.821,19.821,0,0,1,2.7-.61,19.459,19.459,0,0,1,2.74-.22,10.318,10.318,0,0,1,1.36.06h.67l.67.11a18.79,18.79,0,0,1,5.1,1.45A20.131,20.131,0,0,1,595,74.86a19.1,19.1,0,0,1,5.63,8.07,18.11,18.11,0,0,1,.93,9.2l-.18,1.11c-.07.36-.15.72-.22,1.08l-.45,2.14c-.3,1.41-.59,2.79-.87,4.15-1.14,5.42-2.19,10.41-3.13,14.9-1.9,9-3.38,16-4.36,20.69l-.05-.07,6,1.27,1.46.32.48.11-.47-.09-1.45-.28-6-1.22h0v-.06l4.26-20.7c.93-4.5,2-9.49,3.09-14.92.28-1.35.57-2.74.86-4.15.14-.7.29-1.42.44-2.13.08-.36.15-.72.23-1.09s.11-.73.17-1.09a17.84,17.84,0,0,0-.93-9.06,18.78,18.78,0,0,0-5.56-7.93,19.85,19.85,0,0,0-4.32-2.69,18.84,18.84,0,0,0-5-1.42l-.66-.1h-.67a9.839,9.839,0,0,0-1.33,0,19.21,19.21,0,0,0-5.34.82l-1.3.46a11.793,11.793,0,0,0-1.26.56,18.66,18.66,0,0,0-8.16,7.59,20.07,20.07,0,0,0-2,5.43q-.6,2.91-1.22,5.86-1.23,5.91-2.5,12l-5.21,25v.19h-.19l-7.9-1.65h-.18v-.19c.31-1.49.62-3,.94-4.51,2.36-11.31,4.66-22.36,6.89-33,.57-2.67,1-5.32,1.78-7.92a28.832,28.832,0,0,1,3.45-7.18,26.973,26.973,0,0,1,26.24-11.51c.59.1,1.18.17,1.76.29l2,.52,1.07.34,1.6.6.74.31a26.882,26.882,0,0,1,5.49,3.33,27.588,27.588,0,0,1,2.5,2.19q.473.515.9,1.07c.35.42.74.8,1.05,1.24a27.092,27.092,0,0,1,1.82,2.65l.8,1.36c.24.47.44,1,.67,1.42a26.33,26.33,0,0,1,2.45,11.59c0,3.82-1.09,7.33-1.72,10.68s-1.37,6.5-2,9.45c-1.24,5.89-2.32,11-3.19,15.11s-1.56,7.35-2,9.53l-.53,2.47C600.24,137.56,600.17,137.83,600.17,137.83Z" fill="#263238"/><path d="M537.08,104.06h72.09a3.74,3.74,0,0,1,3.74,3.74v54.66a3.4,3.4,0,0,1-3.4,3.4H537.08v-61.8Z" transform="translate(39.63 -114.48) rotate(11.77)" fill="#455a64"/><g opacity="0.3"><path d="M537.12,104.12h71.71a4.12,4.12,0,0,1,4.12,4.12v53.9a3.78,3.78,0,0,1-3.78,3.78H537.12v-61.8Z" transform="translate(39.64 -114.49) rotate(11.77)"/></g><path d="M537.82,102.8H600a4.06,4.06,0,0,1,4.06,4.06v52.77a5,5,0,0,1-5,5H538a4.2,4.2,0,0,1-4.2-4.2V106.86a4.06,4.06,0,0,1,4.02-4.06Z" transform="translate(39.25 -113.27) rotate(11.77)" fill="#455a64"/><g opacity="0.3"><path d="M579.61,130.36a8.63,8.63,0,0,0-6.94-10.26,8.74,8.74,0,0,0-9.94,6.67,8.61,8.61,0,0,0,4.45,9.44l-7.95,10.51,14.51,3.3-2-12.85A8.6,8.6,0,0,0,579.61,130.36Z"/></g><path d="M598.29,165.45c-.1,0,2.06-10.56,4.82-23.54s5.09-23.5,5.19-23.48S606.24,129,603.48,142,598.39,165.47,598.29,165.45Z" fill="#263238"/><path d="M593.37,109.14c0,.1-9.33-1.63-20.79-3.86s-20.75-4.12-20.73-4.22,9.33,1.62,20.8,3.85S593.39,109,593.37,109.14Z" fill="#fff"/><path d="M561.5,131.33a2.886,2.886,0,0,1-.24-.6,7.767,7.767,0,0,1-.32-1.73,9.79,9.79,0,0,1,1.25-5.63,9.89,9.89,0,0,1,4.23-3.92,8.868,8.868,0,0,1,1.66-.6,2,2,0,0,1,.64-.09c0,.07-.89.25-2.18.93a10,10,0,0,0-5.33,9.29C561.26,130.44,561.57,131.31,561.5,131.33Z" fill="#fff"/><path d="M564,136c-.07.08-.53-.23-1-.69s-.83-.89-.76-1,.53.24,1,.69A2.819,2.819,0,0,1,564,136Z" fill="#fff"/><path d="M585.35,64.74s-.52,0-1.46-.1a25.051,25.051,0,0,0-4,.07A23.2,23.2,0,0,0,560.2,79.82a24.994,24.994,0,0,0-1.09,3.82c-.18.92-.26,1.44-.29,1.44a1.6,1.6,0,0,1,0-.38,3.819,3.819,0,0,1,.13-1.09,21.761,21.761,0,0,1,1-3.88,22.89,22.89,0,0,1,19.94-15.29,21,21,0,0,1,4,.06,6.478,6.478,0,0,1,1.08.15,1.37,1.37,0,0,1,.38.09Z" fill="#fff"/><path d="M557.15,91.54a6.83,6.83,0,0,1,.3-2.24,6.811,6.811,0,0,1,.66-2.15,6.631,6.631,0,0,1-.29,2.23,6.678,6.678,0,0,1-.67,2.16Z" fill="#fff"/></g></svg>