<svg xmlns="http://www.w3.org/2000/svg" width="213.58" height="431.499" viewBox="0 0 213.58 431.499">
  <g id="freepik--Character--inject-47" transform="translate(0 0)">
    <path id="Trazado_4" data-name="Trazado 4" d="M171.629,229.316a7.249,7.249,0,0,0,2.755,3.914,6.323,6.323,0,0,0,5.308,1.026,6.6,6.6,0,0,0,4.461-5.3,6.122,6.122,0,0,0-.87-4.048,12.646,12.646,0,0,0-3.19-3.424c-2.554-2.007-6.089-3.669-8.119-7.16a14.766,14.766,0,0,1-1.383-11.866,17.241,17.241,0,0,1,3-5.688,25.092,25.092,0,0,1,4.84-4.461,33.881,33.881,0,0,0,4.84-4.126,8.353,8.353,0,0,0,2.331-5.3,10.293,10.293,0,0,0-1.584-5.465,20.377,20.377,0,0,0-3.58-4.383c-2.688-2.6-5.576-4.907-7.394-7.9a16.215,16.215,0,0,1-2.331-9.178,20.866,20.866,0,0,1,2.074-7.517,39.533,39.533,0,0,0,2.063-5.409,12.334,12.334,0,0,0,.3-4.862.721.721,0,0,0,.112.3,5.386,5.386,0,0,1,.212.948,9.959,9.959,0,0,1-.223,3.714,34.74,34.74,0,0,1-1.918,5.576,20.621,20.621,0,0,0-1.862,7.327,15.524,15.524,0,0,0,2.32,8.676c1.729,2.8,4.561,5.03,7.327,7.65a21.634,21.634,0,0,1,3.769,4.572,11.364,11.364,0,0,1,1.762,6.022,9.412,9.412,0,0,1-2.587,5.966,33.457,33.457,0,0,1-4.985,4.26,25.193,25.193,0,0,0-4.662,4.271,16.561,16.561,0,0,0-2.833,5.342,13.829,13.829,0,0,0,1.227,11.052c1.818,3.223,5.163,4.851,7.807,6.97a13.383,13.383,0,0,1,3.346,3.7,6.825,6.825,0,0,1,.892,4.572,7.216,7.216,0,0,1-5.085,5.766,6.97,6.97,0,0,1-7.963-4.249,3.813,3.813,0,0,1-.178-1.3Z" transform="translate(-131.606 -81.729)" fill="#263238"/>
    <path id="Trazado_5" data-name="Trazado 5" d="M58.367,127.081c3.558-.2,6.781-2.3,10.338-2.665,5.063-.524,9.792,2.52,13.595,5.911a34.293,34.293,0,0,1,9.033,11.8c3.268,7.639,2.375,16.438.156,24.446-1.985,7.193-4.929,15.178-1.383,21.747,1.115,2.063,2.8,3.769,4.115,5.721a19.137,19.137,0,0,1,2.554,15.613c-1.405,5.074-4.862,9.357-6.491,14.353a21.289,21.289,0,0,0,.87,15.245c1.216,2.665,2.978,5.074,4.1,7.807a18.479,18.479,0,0,1,.223,13.45c-1.372,3.613-3.892,6.814-4.561,10.617-1.115,6.033,2.71,12.078,1.929,18.156-14.721,3.68-30.68,7.282-44.665,1.394a2.877,2.877,0,0,1-2.23-3.948A70.315,70.315,0,0,1,56.3,262.246c3.346-4.952,7.45-10.193,6.691-16.093-1.048-7.807-10.528-13.695-8.721-21.368,1.115-4.717,6.123-7.394,8.5-11.621,2.23-3.926,1.929-8.788.825-13.16s-2.966-8.531-3.758-12.959c-1.115-6.145-.178-12.769-2.911-18.368" transform="translate(96.11 -83.322)" fill="#263238"/>
    <path id="Trazado_6" data-name="Trazado 6" d="M78.021,122.6c-1.115,1.115-1.372,2.944-1.394,4.807a30.658,30.658,0,0,0,.669,5.978,29.776,29.776,0,0,0,1.673,5.777c.725,1.706,1.617,3.29,3.123,3.9s3.346-.078,4.929-2.23a11.152,11.152,0,0,0,1.706-4.193,14.576,14.576,0,0,0-2.108-10.55,10.952,10.952,0,0,0-3.178-3.223C81.177,121.381,79.125,121.492,78.021,122.6Z" transform="translate(70.133 -83.621)" fill="#fff"/>
    <path id="Trazado_7" data-name="Trazado 7" d="M194.688,185.2c2.052-5.833.178-12.323-2.61-17.844s-6.468-10.628-8.375-16.505c-2.074-6.357-1.952-13.383-4.461-19.516a24.535,24.535,0,0,0-14.732-13.751c-3.981-1.316-8.4-1.651-11.832-4.048s-5.387-6.691-8.074-10.037c-4.372-5.576-8.554-10.249-15.044-12.959-7.405-3.089-18.223-4.227-25.65-1.2a21.468,21.468,0,0,0-10.539,10.3,45.122,45.122,0,0,0-4.048,14.431c-7.583,1.461-11.977,9.234-15.345,16.182-1.9,3.914-3.825,7.974-3.97,12.267-.167,4.84,3.992,21.457,6.334,25.65,12.122,21.9,30.111,26.509,52.058,38.631,8.453,4.684,13.684,15.435,23.342,15.055,11.253-.435,22.2-.87,28.728-10.037S194.342,194,195.3,182.844" transform="translate(-29.069 -87.561)" fill="#263238"/>
    <path id="Trazado_8" data-name="Trazado 8" d="M100.042,147.506c.625-15.691,10.539-35.152,26.2-33.88l49.07,11.152a9.189,9.189,0,0,1,8.442,9.122l-2.42,117.656.335.067s-10.238,33.457-42.713,24.144c-6.446-1.84-9.535-8.754-11-15.9h-.323c0-.848-.067-1.639-.1-2.453a77.6,77.6,0,0,1-.613-16.137h0c-.335-9.479-.424-13.383-.424-13.282s-20.074-2.855-24.858-28.862C99.217,186.294,99.362,164.982,100.042,147.506Z" transform="translate(-50.284 -84.565)" fill="#996964"/>
    <path id="Trazado_9" data-name="Trazado 9" d="M130.82,162.871a3.346,3.346,0,0,0,3.346,3.346,3.212,3.212,0,0,0,3.346-3.1,3.346,3.346,0,0,0-3.346-3.346,3.212,3.212,0,0,0-3.346,3.1Z" transform="translate(-38.851 -79.242)" fill="#263238"/>
    <path id="Trazado_10" data-name="Trazado 10" d="M161.22,161.961a3.346,3.346,0,0,0,3.346,3.346,3.2,3.2,0,0,0,3.346-3.1,3.346,3.346,0,0,0-3.346-3.346,3.212,3.212,0,0,0-3.346,3.1Z" transform="translate(-103.153 -79.347)" fill="#263238"/>
    <path id="Trazado_11" data-name="Trazado 11" d="M158.606,154.73c.424.58,3.346-1.7,7.238-1.517s6.691,2.576,7.137,2.03c.223-.234-.178-1.249-1.372-2.364a8.922,8.922,0,0,0-11.487-.413C158.863,153.492,158.394,154.473,158.606,154.73Z" transform="translate(-105.313 -80.301)" fill="#263238"/>
    <path id="Trazado_12" data-name="Trazado 12" d="M125.211,155.271c.513.513,3.346-2,7.517-2.23s7.372,1.818,7.807,1.238c.212-.257-.335-1.2-1.729-2.164a10.16,10.16,0,0,0-6.279-1.673,9.948,9.948,0,0,0-5.944,2.465C125.345,154.033,124.966,155.048,125.211,155.271Z" transform="translate(-35.584 -80.319)" fill="#263238"/>
    <path id="Trazado_13" data-name="Trazado 13" d="M157.992,181.106c0-.212-2.23-.546-5.877-.926-.926-.067-1.8-.234-1.963-.859a4.651,4.651,0,0,1,.546-2.743q1.227-3.346,2.554-7.07c3.546-10.037,6.078-18.334,5.676-18.468s-3.613,7.907-7.149,17.966c-.848,2.487-1.662,4.851-2.442,7.115a5.331,5.331,0,0,0-.39,3.624,2.308,2.308,0,0,0,1.55,1.3,5.878,5.878,0,0,0,1.561.178C155.717,181.307,157.981,181.274,157.992,181.106Z" transform="translate(-80.353 -80.247)" fill="#263238"/>
    <path id="Trazado_14" data-name="Trazado 14" d="M119.84,217.31a66.478,66.478,0,0,0,34.75-10.16s-8.353,18.713-34.572,16.9Z" transform="translate(-43.684 -73.782)" fill="#784d48"/>
    <path id="Trazado_15" data-name="Trazado 15" d="M138.763,185.986a6.513,6.513,0,0,1,5.766-2.554,5.911,5.911,0,0,1,4.149,2.108,3.747,3.747,0,0,1,.39,4.282,4.338,4.338,0,0,1-4.7,1.3A13.5,13.5,0,0,1,139.7,188.5a3.948,3.948,0,0,1-1.059-1.048,1.193,1.193,0,0,1,0-1.338" transform="translate(-59.396 -76.518)" fill="#784d48"/>
    <path id="Trazado_16" data-name="Trazado 16" d="M150.787,180c-.58,0-.5,3.892-3.781,6.747s-7.45,2.532-7.472,3.078c0,.245.948.736,2.71.747a9.825,9.825,0,0,0,6.245-2.342,8.543,8.543,0,0,0,2.922-5.654C151.523,180.9,151.055,180,150.787,180Z" transform="translate(-62.487 -76.911)" fill="#263238"/>
    <path id="Trazado_17" data-name="Trazado 17" d="M124.955,144.117c.379.97,3.959.413,8.2.825s7.7,1.483,8.23.591c.245-.424-.368-1.338-1.773-2.23a14.353,14.353,0,0,0-12.524-1.115C125.547,142.857,124.788,143.648,124.955,144.117Z" transform="translate(-36.209 -81.376)" fill="#263238"/>
    <path id="Trazado_18" data-name="Trazado 18" d="M156.862,144.895c.747.8,3.558-.112,6.97-.234s6.312.4,6.959-.468c.279-.424-.19-1.238-1.472-1.974a10.7,10.7,0,0,0-5.7-1.216,10.505,10.505,0,0,0-5.52,1.784C156.907,143.657,156.539,144.5,156.862,144.895Z" transform="translate(-101.126 -81.406)" fill="#263238"/>
    <path id="Trazado_19" data-name="Trazado 19" d="M155.933,127.576c-2.766-3.446-7.26-4.907-11.52-6.078A240.117,240.117,0,0,0,88.072,113c-1.952,4.093.747,9.122,4.561,11.576s8.453,3.1,12.836,4.249,8.922,3.156,11.152,7.137c2.3,4.238,1.26,9.635,3.346,13.985,3.58,7.483,14.665,8.922,18.2,16.394,2.677,5.665.937,4.372.7,10.639-.257,7.1,4.115,8.175,9.725,12.535,4.461,3.435,12.97,7.372,18.546,6.914-.959-22.4-6.758-33.178-7.717-55.583C159.178,136.23,158.855,131.212,155.933,127.576Z" transform="translate(-20.08 -84.63)" fill="#263238"/>
    <path id="Trazado_20" data-name="Trazado 20" d="M162.72,94.53a2.141,2.141,0,0,0-.457-.335,12.37,12.37,0,0,0-1.416-.859,22.16,22.16,0,0,0-5.688-2.13,24.7,24.7,0,0,0-9-.413,22.962,22.962,0,0,0-17.6,12.178,24.457,24.457,0,0,0-2.788,8.565,21.838,21.838,0,0,0,0,6.078,13.919,13.919,0,0,0,.3,1.617,2.23,2.23,0,0,0,.156.558,29.185,29.185,0,0,1,0-8.2,25.071,25.071,0,0,1,2.855-8.364,22.851,22.851,0,0,1,17.208-11.911,25.36,25.36,0,0,1,8.832.279,29.81,29.81,0,0,1,7.595,2.933Z" transform="translate(-58.193 -87.216)" fill="#455a64"/>
    <path id="Trazado_21" data-name="Trazado 21" d="M163.372,114.478a3.022,3.022,0,0,0-.758,0,10.829,10.829,0,0,1-2.13-.2,13.382,13.382,0,0,1-3.178-1.115,27.192,27.192,0,0,1-3.781-2.431c-1.349-.993-2.755-2.23-4.327-3.346a28.36,28.36,0,0,0-5.342-3.435,29.431,29.431,0,0,0-14.174-2.766,28.728,28.728,0,0,0-13.8,4.26,29.509,29.509,0,0,0-8.52,8.2,28.127,28.127,0,0,0-3.591,7.126,18.959,18.959,0,0,0-.591,2.085,3.2,3.2,0,0,0-.134.747c.067,0,.279-1,.937-2.755a29.876,29.876,0,0,1,3.714-6.97,29.508,29.508,0,0,1,8.476-7.974A28.36,28.36,0,0,1,129.7,101.72a29.275,29.275,0,0,1,13.929,2.677,28.126,28.126,0,0,1,5.275,3.346c1.572,1.193,3,2.353,4.372,3.346a26.554,26.554,0,0,0,3.881,2.387,12.569,12.569,0,0,0,3.346,1.115,9.022,9.022,0,0,0,2.23.089A5.751,5.751,0,0,0,163.372,114.478Z" transform="translate(-33.742 -85.997)" fill="#455a64"/>
    <path id="Trazado_22" data-name="Trazado 22" d="M113.484,138.13a44.89,44.89,0,0,1-1.361,6.39,29,29,0,0,1-22.3,19.94,49.386,49.386,0,0,1-6.513.647,2.519,2.519,0,0,0,.457.067,11.794,11.794,0,0,0,1.3.067,25.652,25.652,0,0,0,4.818-.379,28.349,28.349,0,0,0,22.628-20.185,26.342,26.342,0,0,0,.914-4.751c.067-.558.067-1,.078-1.3A1.364,1.364,0,0,0,113.484,138.13Z" transform="translate(38.138 -81.735)" fill="#455a64"/>
    <path id="Trazado_23" data-name="Trazado 23" d="M80.57,176a9.123,9.123,0,0,0,1.773-.279,46.66,46.66,0,0,0,4.729-1.216A35.977,35.977,0,0,0,101.09,166.7a23.353,23.353,0,0,0,7.238-14.186,17.3,17.3,0,0,0-.167-4.9,10.205,10.205,0,0,0-.323-1.294c-.078-.29-.134-.446-.156-.435a23.063,23.063,0,0,1,.245,6.58,23.654,23.654,0,0,1-7.238,13.806,37.382,37.382,0,0,1-13.739,7.807c-1.94.658-3.546,1.115-4.662,1.394A12.267,12.267,0,0,0,80.57,176Z" transform="translate(46.272 -80.841)" fill="#455a64"/>
    <path id="Trazado_24" data-name="Trazado 24" d="M164.15,109.439a31.517,31.517,0,0,1,8.543.145,31.571,31.571,0,0,1,8.018,3.011,7.807,7.807,0,0,0-2.085-1.483,19.728,19.728,0,0,0-5.821-2.1,20.074,20.074,0,0,0-6.178-.19,7.383,7.383,0,0,0-2.476.613Z" transform="translate(-119.221 -85.129)" fill="#263238"/>
    <path id="Trazado_25" data-name="Trazado 25" d="M164.854,97.23a8.733,8.733,0,0,0-.19,2.743,23.722,23.722,0,0,0,1.115,6.535,23.42,23.42,0,0,0,2.911,5.966,8.431,8.431,0,0,0,1.762,2.108,39.924,39.924,0,0,1-4.115-8.253,39.768,39.768,0,0,1-1.483-9.1Z" transform="translate(-109.498 -86.447)" fill="#263238"/>
    <path id="Trazado_26" data-name="Trazado 26" d="M98.154,210.566a31.09,31.09,0,0,1-3.825,2.119,16.728,16.728,0,0,1-19.159-4.1,32.62,32.62,0,0,1-2.61-3.491,3.814,3.814,0,0,0,.468,1.115,14.3,14.3,0,0,0,1.84,2.677,16.416,16.416,0,0,0,19.628,4.2,14.353,14.353,0,0,0,2.777-1.7A3.725,3.725,0,0,0,98.154,210.566Z" transform="translate(65.479 -74.02)" fill="#263238"/>
    <path id="Trazado_27" data-name="Trazado 27" d="M88.012,203.6a17.513,17.513,0,0,0-1.94.245,10.416,10.416,0,0,1-5.163-.346,4.9,4.9,0,0,1-2.52-2.331,4.037,4.037,0,0,1-.5-1.829,2.844,2.844,0,0,1,.725-1.807,3.479,3.479,0,0,1,3.981-.591,4.361,4.361,0,0,1,2.23,3.9,6.334,6.334,0,0,1-1.829,4.294,9.669,9.669,0,0,1-3.758,2.453,11.5,11.5,0,0,1-7.583,0,10.929,10.929,0,0,1-4.461-2.732l-.558-.6-.368-.491c-.212-.257-.323-.39-.346-.379a1.807,1.807,0,0,0,.245.446l.323.524.535.658a10.661,10.661,0,0,0,4.461,2.966,11.777,11.777,0,0,0,7.9.134,10.171,10.171,0,0,0,3.992-2.565,6.881,6.881,0,0,0,2-4.7,4.907,4.907,0,0,0-2.5-4.405,4.037,4.037,0,0,0-4.639.747,3.346,3.346,0,0,0-.825,2.152,4.461,4.461,0,0,0,.535,2.085,5.342,5.342,0,0,0,2.81,2.487,10.037,10.037,0,0,0,5.342.19,14.259,14.259,0,0,0,1.416-.312,1.539,1.539,0,0,0,.5-.2Z" transform="translate(83.026 -75.063)" fill="#263238"/>
    <path id="Trazado_28" data-name="Trazado 28" d="M90.979,163.7c.4-.19,16.327-5.576,16.483,10.907s-16.4,13.227-16.438,12.747S90.979,163.7,90.979,163.7Z" transform="translate(35.629 -78.902)" fill="#996964"/>
    <path id="Trazado_29" data-name="Trazado 29" d="M94.737,180.538c.067-.056.279.19.77.413a2.844,2.844,0,0,0,2.141,0c1.74-.658,3.178-3.435,3.234-6.4a9.546,9.546,0,0,0-.848-4.1,3.346,3.346,0,0,0-2.175-2.23,1.439,1.439,0,0,0-1.684.8c-.223.457-.112.792-.2.814s-.357-.268-.234-.948a1.784,1.784,0,0,1,.647-1.037,2.1,2.1,0,0,1,1.584-.435,4.015,4.015,0,0,1,3.022,2.52,9.948,9.948,0,0,1,1.037,4.584c-.078,3.346-1.751,6.435-4.126,7.149a3.044,3.044,0,0,1-2.621-.413C94.771,180.928,94.67,180.56,94.737,180.538Z" transform="translate(36.889 -78.363)" fill="#784d48"/>
    <path id="Trazado_30" data-name="Trazado 30" d="M105.339,181.6a3.88,3.88,0,0,0,.747.48c.5.3,1.283.691,2.23,1.283a15.68,15.68,0,0,1,5.81,7.082A15.457,15.457,0,0,1,99.7,211.811a15.256,15.256,0,0,1-4.338-.669,14.42,14.42,0,0,1-3.87-1.8,15.5,15.5,0,0,1,.212-26.163,29.661,29.661,0,0,1,3.033-1.584,11.721,11.721,0,0,0-3.156,1.394,15.613,15.613,0,0,0-6.212,6.992,15.881,15.881,0,0,0,5.866,19.84,14.766,14.766,0,0,0,4,1.862,15.513,15.513,0,0,0,4.461.7,15.859,15.859,0,0,0,8.721-29.23c-.959-.58-1.751-.926-2.23-1.193A6.97,6.97,0,0,0,105.339,181.6Z" transform="translate(35.121 -76.726)" fill="#fff"/>
    <path id="Trazado_31" data-name="Trazado 31" d="M72.58,136.55a4.461,4.461,0,0,0,0,.814,17.686,17.686,0,0,0,.223,2.3,32.531,32.531,0,0,0,2.431,8.13c1.394,3.346,3.468,7.059,5.643,11.241a67.823,67.823,0,0,1,3.089,6.691,31.516,31.516,0,0,1,2.019,7.617,28.059,28.059,0,0,1-2.23,14.877,30.613,30.613,0,0,1-3.346,5.721c-1.249,1.7-2.453,3.234-3.569,4.628-2.23,2.788-4.126,4.985-5.442,6.491l-1.517,1.729a6.532,6.532,0,0,0-.5.625,5.738,5.738,0,0,0,.591-.546c.368-.379.914-.926,1.595-1.662,1.372-1.461,3.346-3.613,5.576-6.379,1.115-1.383,2.375-2.911,3.636-4.595a30.446,30.446,0,0,0,3.5-5.788,28.371,28.371,0,0,0,2.32-15.178,32.13,32.13,0,0,0-2.063-7.74,70.392,70.392,0,0,0-3.145-6.758c-2.23-4.193-4.316-7.885-5.755-11.152a35.5,35.5,0,0,1-2.576-8.018,21.589,21.589,0,0,1-.323-2.23,4.026,4.026,0,0,0-.156-.814Z" transform="translate(80.369 -81.917)" fill="#455a64"/>
    <path id="Trazado_32" data-name="Trazado 32" d="M73.555,231.3a.732.732,0,0,1,.167-.368,1.662,1.662,0,0,1,.914-.714,2.554,2.554,0,0,1,1.862.112,2.933,2.933,0,0,1,1.439,2.085,8.654,8.654,0,0,1,0,3.346,6.691,6.691,0,0,1-1.55,3.546,4.539,4.539,0,0,1-4.093,1.271,6.691,6.691,0,0,1-4.316-2.554,9.658,9.658,0,0,1-1.729-5.219,23.33,23.33,0,0,1,.569-6.067c.836-4.182,2.42-8.465,3.758-13.093s2.308-9.736,1.372-14.989a16.728,16.728,0,0,0-3.234-7.349c-1.7-2.141-3.792-3.948-5-6.413a19.394,19.394,0,0,1-1.963-7.807,37.705,37.705,0,0,1,.457-7.873c.8-5.141,2.074-10.037,2.164-14.933a28.449,28.449,0,0,0-10.438-22.572A27.88,27.88,0,0,0,45.329,127a28.215,28.215,0,0,0-7.271-1.439,26.854,26.854,0,0,0-4.684.1,5.8,5.8,0,0,0-1.2.178,2.691,2.691,0,0,0-.413.078,2.409,2.409,0,0,0,.424,0l1.227-.123a30.534,30.534,0,0,1,4.662,0,28.928,28.928,0,0,1,7.182,1.517,27.88,27.88,0,0,1,18.613,26.955c-.1,4.784-1.372,9.691-2.23,14.866a37.259,37.259,0,0,0-.48,8,20.2,20.2,0,0,0,2.1,8.03c1.26,2.576,3.424,4.461,5.063,6.5a16.227,16.227,0,0,1,3.123,7.093c.914,5.108,0,10.182-1.327,14.743s-2.888,8.922-3.714,13.137a23.643,23.643,0,0,0-.546,6.2A10.037,10.037,0,0,0,67.7,238.27a6.993,6.993,0,0,0,4.461,2.621,4.851,4.851,0,0,0,4.372-1.405,7.048,7.048,0,0,0,1.595-3.725,9.122,9.122,0,0,0,0-3.4,3.145,3.145,0,0,0-1.584-2.23,2.621,2.621,0,0,0-1.985-.067,1.583,1.583,0,0,0-.914.792,1.048,1.048,0,0,0-.089.446Z" transform="translate(130.851 -83.189)" fill="#263238"/>
    <path id="Trazado_33" data-name="Trazado 33" d="M168.889,235.66s-21.513,10.862-32.341,8.922c-13.55-2.42-16.951-8.253-16.951-8.253l-5.453,12.39L75.11,502H203.237L176.149,242.53Z" transform="translate(-42.448 -70.497)" fill="#fff"/>
    <path id="Trazado_34" data-name="Trazado 34" d="M49.672,306.556s7.171-36.8,36.624-65.664L95.117,216s10.985,2.286,12.647,7.271a73.013,73.013,0,0,1,2.487,12.022s38.575,7.472,44.386,14.933S128.92,394.167,128.92,394.167s23.353,53.943,25.884,72.612a308.563,308.563,0,0,1,2.967,37.482H47.531c0-11.609-4.461-112.637-4.461-112.637Z" transform="translate(38.751 -72.763)" fill="#455a64"/>
    <g id="Grupo_30" data-name="Grupo 30" transform="translate(112.947 168.218)" opacity="0.3">
      <path id="Trazado_35" data-name="Trazado 35" d="M121.069,249.954a20.9,20.9,0,0,1-5.453,9.312,8.922,8.922,0,0,0-4.316-8.732,14.621,14.621,0,0,0-10.037-1.595,43.906,43.906,0,0,0-9.8,3.223,90.223,90.223,0,0,1,9.368-10.974c1.316-1.361,1.572-2.141,3.346-2.788a84.891,84.891,0,0,1,7.985,3.814,35.175,35.175,0,0,1,8.855,7.74" transform="translate(-91.46 -238.4)"/>
    </g>
    <path id="Trazado_36" data-name="Trazado 36" d="M85.645,238.9a50.84,50.84,0,0,1,6.178,2.42,29.476,29.476,0,0,1,5.922,4,34.494,34.494,0,0,1,5.732,6.6c.357.524.691,1.115,1.015,1.561l.257.4.234-.4a32.754,32.754,0,0,0,4.528-14.1,29.879,29.879,0,0,0,0-4.461,7.871,7.871,0,0,0-.123-1.193c-.033-.268-.067-.424-.089-.413a11.954,11.954,0,0,0,0,1.617,39.229,39.229,0,0,1-.212,4.394,34.17,34.17,0,0,1-4.628,13.84h.491c-.323-.5-.658-1.048-1.026-1.595a33.634,33.634,0,0,0-5.866-6.691,27.469,27.469,0,0,0-6.089-3.97,26.9,26.9,0,0,0-4.595-1.7c-.558-.145-1-.234-1.294-.29a2.308,2.308,0,0,0-.435-.033Z" transform="translate(39.446 -70.767)" fill="#263238"/>
    <path id="Trazado_37" data-name="Trazado 37" d="M99.45,330.006a5.742,5.742,0,0,0,.178-.959q.145-1.026.4-2.777c.089-.6.178-1.271.29-2s.29-1.528.446-2.375c.323-1.7.669-3.624,1.2-5.743a203.572,203.572,0,0,1,10.628-32.23c2.554-6.134,5.208-11.877,7.807-17s5.152-9.647,7.372-13.383,4.2-6.691,5.576-8.632l1.639-2.23a8.451,8.451,0,0,0,.546-.814,4.283,4.283,0,0,0-.636.736l-1.729,2.23c-1.45,1.952-3.468,4.851-5.777,8.554s-4.885,8.219-7.494,13.383-5.331,10.873-7.885,17.018a190.49,190.49,0,0,0-10.494,32.341c-.513,2.119-.825,4.071-1.115,5.777-.145.859-.29,1.651-.413,2.387s-.156,1.405-.234,2.019c-.123,1.171-.223,2.1-.29,2.788a5.275,5.275,0,0,0-.022.9Z" transform="translate(-1.882 -69.782)" fill="#263238"/>
    <path id="Trazado_38" data-name="Trazado 38" d="M65.84,403.42a3.866,3.866,0,0,0,.312.435l.981,1.182,3.647,4.3c3.078,3.647,7.249,8.732,11.687,14.5s8.253,11.152,10.985,15.033c1.316,1.907,2.409,3.468,3.223,4.639l.881,1.26a2.229,2.229,0,0,0,.346.413,3.408,3.408,0,0,0-.245-.479l-.792-1.316c-.7-1.115-1.751-2.755-3.078-4.74-2.643-3.981-6.424-9.379-10.862-15.156s-8.676-10.84-11.832-14.42c-1.572-1.784-2.877-3.223-3.792-4.193l-1.115-1.115C65.985,403.532,65.851,403.4,65.84,403.42Z" transform="translate(73.225 -51.169)" fill="#263238"/>
    <path id="Trazado_39" data-name="Trazado 39" d="M65.109,412.7a2.03,2.03,0,0,0,.357.524l1.115,1.416c.959,1.227,2.387,2.978,4.182,5.1,3.624,4.249,8.844,10.026,14.844,15.936s11.955,11.152,16.249,14.7l.145.112.123-.123,4.7-4.461,1.249-1.238c.29-.29.424-.446.413-.468a3.551,3.551,0,0,0-.491.379l-1.327,1.115-4.818,4.361h.279c-4.227-3.624-10.037-8.777-16.1-14.8S74.778,423.64,71.1,419.458l-4.327-4.974-1.115-1.349a3.212,3.212,0,0,0-.546-.435Z" transform="translate(63.461 -50.099)" fill="#263238"/>
    <path id="Trazado_40" data-name="Trazado 40" d="M94.55,413.453a46.472,46.472,0,0,0,5.219-5.286,48.421,48.421,0,0,0,4.784-5.676,48.871,48.871,0,0,0-5.219,5.286,48.423,48.423,0,0,0-4.784,5.676Z" transform="translate(34.556 -51.275)" fill="#263238"/>
    <g id="Grupo_31" data-name="Grupo 31" transform="translate(84.21 294.639)" opacity="0.3">
      <path id="Trazado_41" data-name="Trazado 41" d="M58.577,353.9c1.216-1.807,3.7-2.152,5.877-2.141,8.922.056,17.542,3.346,25.17,7.907s14.353,10.505,21.044,16.383c2.152,1.885,4.461,4.316,4.015,7.137-.335,1.929-1.773.39-2.375,2.23-.714,2.23-3.613,8.13-3.613,8.13,1.472,1.762,9.056,8.777,11.1,9.8,11.152,5.576,21.981,7.617,32.564,2.621l1.3,2.364c-4.907,6.413-11.052,6.691-19.115,6.368s-15.736-3.636-22.717-7.673c-4.706-2.71-9.635-6.491-10.182-11.888-.245-2.4.446-4.851,0-7.227-.959-5.342-6.758-8.041-11.554-10.595A59.842,59.842,0,0,1,70.276,360.28c-2.821.758-5.844,1.506-8.587.524S56.971,356.332,58.577,353.9Z" transform="translate(-58 -351.76)"/>
    </g>
    <path id="Trazado_42" data-name="Trazado 42" d="M107.12,322.919a5.431,5.431,0,0,0,.134-.959c.067-.68.156-1.595.268-2.755.178-2.4.625-5.844,1.227-10.093a133.035,133.035,0,0,1,3.156-14.721c.691-2.743,1.7-5.576,2.665-8.476l1.8-4.394c.569-1.483,1.283-2.944,1.929-4.461a125.418,125.418,0,0,1,8.922-16.148c1.617-2.331,3.078-4.595,4.628-6.591l2.23-2.922c.736-.9,1.45-1.773,2.119-2.61,1.327-1.7,2.632-3.134,3.747-4.461s2.085-2.387,2.911-3.268l1.762-1.985a5.419,5.419,0,0,0,.613-.747,7.705,7.705,0,0,0-.7.669l-1.94,1.974c-.848.859-1.862,1.918-2.989,3.212s-2.465,2.7-3.814,4.372l-2.152,2.6-2.23,2.911c-1.584,1.985-3.067,4.249-4.7,6.591a120.828,120.828,0,0,0-8.922,16.193c-.658,1.506-1.372,2.966-1.941,4.461s-1.115,2.966-1.7,4.405c-.97,2.944-1.963,5.777-2.654,8.543a126.309,126.309,0,0,0-3.089,14.8c-.558,4.271-.948,7.728-1.048,10.137-.067,1.115-.123,2.074-.156,2.766A5.676,5.676,0,0,0,107.12,322.919Z" transform="translate(-20.136 -70.19)" fill="#263238"/>
    <path id="Trazado_43" data-name="Trazado 43" d="M135.172,488.237a1.115,1.115,0,0,0,0-.346,6.473,6.473,0,0,0-.1-1c-.112-.926-.268-2.23-.457-3.859s-.468-3.736-.725-6.111-.591-5.1-.87-8.108c-.625-6-1.238-13.16-1.8-21.122s-.959-16.728-1.2-25.94-.2-17.988-.078-25.962.424-15.167.747-21.189c.134-3.022.335-5.743.468-8.141s.29-4.461.424-6.134.2-2.955.257-3.881a5.365,5.365,0,0,1,.056-1.015,1.417,1.417,0,0,0,0-.346,2.34,2.34,0,0,0-.056.346c0,.257-.067.591-.112,1-.089.926-.212,2.23-.379,3.87s-.346,3.747-.513,6.134-.4,5.119-.558,8.141c-.379,6.022-.68,13.215-.87,21.189s-.178,16.728,0,26,.7,17.988,1.249,25.951,1.249,15.134,1.918,21.189c.312,3.011.669,5.721.959,8.1s.58,4.461.825,6.1.424,2.933.558,3.847l.167,1A2.677,2.677,0,0,0,135.172,488.237Z" transform="translate(-34.794 -56.738)" fill="#263238"/>
    <path id="Trazado_44" data-name="Trazado 44" d="M224.443,230.632s-10.862-1.249-22.516,14.565-25.338,66.144-25.951,84.9-5.643,48.389,7.684,57.088,22.059,8.119,29.141,3.613,11.152-19.472,11.152-19.472Z" transform="translate(-174.54 -71.079)" fill="#455a64"/>
    <path id="Trazado_45" data-name="Trazado 45" d="M184.8,503.972c11.788-26.643,15.122-46.694,17.844-79.816s9.446-103.046,10.929-103.838c1.115-.569,3.256-24.747,4.338-37.616a31.393,31.393,0,0,0-2.487-15.156c-2.465-5.71-5.576-12.758-6-13.182-.714-.7-4.662-16.059-4.662-16.059l-.5-19.784-11.565,10.572L177.5,232.014l-14.565,163.38s-19.516,49.739-22.9,66.389-1.048,42.178-1.048,42.178" transform="translate(-127.598 -72.472)" fill="#455a64"/>
    <g id="Grupo_32" data-name="Grupo 32" transform="translate(38.966 289.302)" opacity="0.3">
      <path id="Trazado_46" data-name="Trazado 46" d="M148.558,363.006c3.29-4.461,6.691-9.056,11.208-12.267s10.505-4.851,15.769-2.966c4.885,1.807,8.286,6.368,13.048,8.476l-.636,5.409c-2.721,2.833-6.535,3.256-10.338,2.23-3.513-.914-6.691-3.558-10.271-3.256-3.424.279-6.189,3.156-9.6,3.546-1.606.19-3.346-.178-4.8.513-.87.424-1.539,1.171-2.375,1.662a2.152,2.152,0,0,1-2.665-.145C147.153,365.3,147.856,363.965,148.558,363.006Z" transform="translate(-147.58 -346.974)"/>
    </g>
    <path id="Trazado_47" data-name="Trazado 47" d="M150.374,228s-.134.145-.357.446-.546.736-.937,1.338a58.139,58.139,0,0,0-3.123,5.275,62.251,62.251,0,0,0-6.446,20.252l-.078.524.468-.245a31.628,31.628,0,0,1,23.152-1.94l-.19-.357c-1,3.011-1.974,5.9-2.877,8.643l-.089.234.234.089a22.3,22.3,0,0,1,8.576,6.212,23.341,23.341,0,0,1,4.227,7.16,22.617,22.617,0,0,1,1.283,5.3c.123,1.249.156,1.94.19,1.94a1.717,1.717,0,0,0,0-.5v-1.461a21.378,21.378,0,0,0-1.115-5.375,23.008,23.008,0,0,0-4.193-7.349,22.46,22.46,0,0,0-8.71-6.413l.156.335c.914-2.732,1.9-5.576,2.911-8.632l.1-.279-.279-.078a31.371,31.371,0,0,0-8.922-1.383,31.829,31.829,0,0,0-14.721,3.4l.39.279a64.1,64.1,0,0,1,6.212-20.174c1.171-2.342,2.23-4.126,2.978-5.342l.859-1.383a3.18,3.18,0,0,0,.3-.513Z" transform="translate(-85.37 -71.38)" fill="#263238"/>
    <path id="Trazado_48" data-name="Trazado 48" d="M146.857,297.816a5.186,5.186,0,0,1,5.9-3.346l1.327.513a5,5,0,1,1-7.227,2.888Z" transform="translate(-75.609 -63.733)" fill="#ebebeb"/>
    <path id="Trazado_49" data-name="Trazado 49" d="M146.744,297.845a1.107,1.107,0,0,0-.134.29,3.857,3.857,0,0,0-.178.9,5.241,5.241,0,0,0,.9,3.268,5.141,5.141,0,0,0,1.74,1.639,4.841,4.841,0,0,0,2.7.58,5.577,5.577,0,0,0,2.866-1.015,4.907,4.907,0,0,0,1.918-2.643,5.453,5.453,0,0,0-2.453-6.134h0l-1.338-.513h0a5.063,5.063,0,0,0-3.123.346,5.577,5.577,0,0,0-1.929,1.439,4.573,4.573,0,0,0-.781,1.316c-.123.335-.145.524-.123.535a7.939,7.939,0,0,1,1.115-1.662,5.386,5.386,0,0,1,1.874-1.249,4.7,4.7,0,0,1,2.855-.245h0l1.327.524h0A4.985,4.985,0,0,1,156,300.678a4.829,4.829,0,0,1-4.271,3.279,4.461,4.461,0,0,1-4.059-1.918,5.23,5.23,0,0,1-1-3.022C146.655,298.28,146.788,297.857,146.744,297.845Z" transform="translate(-75.495 -63.762)" fill="#263238"/>
    <path id="Trazado_50" data-name="Trazado 50" d="M153.81,370.686a5.175,5.175,0,0,1,5.911-3.346l1.327.513a5,5,0,1,1-7.238,2.877Z" transform="translate(-90.312 -55.337)" fill="#ebebeb"/>
    <path id="Trazado_51" data-name="Trazado 51" d="M153.683,370.713a1.422,1.422,0,0,0-.134.29,3.536,3.536,0,0,0-.167.914,5.253,5.253,0,0,0,.892,3.268,5.164,5.164,0,0,0,1.751,1.628,4.7,4.7,0,0,0,2.688.591,5.576,5.576,0,0,0,2.866-1.015,4.885,4.885,0,0,0,1.918-2.643,5.453,5.453,0,0,0-2.453-6.134h0l-1.327-.5h0a5.041,5.041,0,0,0-3.123.357,5.275,5.275,0,0,0-1.929,1.427,4.462,4.462,0,0,0-.792,1.327,1.361,1.361,0,0,0-.123.524,8.522,8.522,0,0,1,1.115-1.651,5.052,5.052,0,0,1,1.874-1.26,4.762,4.762,0,0,1,2.855-.245h0l1.171.524h0a4.974,4.974,0,0,1,2.152,5.52,4.818,4.818,0,0,1-4.26,3.346,4.461,4.461,0,0,1-4.059-1.918,5.253,5.253,0,0,1-1.015-3.022C153.605,371.148,153.739,370.724,153.683,370.713Z" transform="translate(-90.186 -55.364)" fill="#263238"/>
    <path id="Trazado_52" data-name="Trazado 52" d="M158.463,419.826a5.163,5.163,0,0,1,5.9-3.346l1.327.513a5,5,0,1,1-7.227,2.877Z" transform="translate(-100.151 -49.675)" fill="#ebebeb"/>
    <path id="Trazado_53" data-name="Trazado 53" d="M158.343,419.853a1.423,1.423,0,0,0-.134.29,3.983,3.983,0,0,0-.178.915,5.275,5.275,0,0,0,.9,3.268,5.119,5.119,0,0,0,1.74,1.628,4.751,4.751,0,0,0,2.7.591,5.576,5.576,0,0,0,2.866-1.015,4.941,4.941,0,0,0,1.918-2.643,5.453,5.453,0,0,0-2.454-6.134h0l-1.338-.5h0a5.052,5.052,0,0,0-3.123.357,5.375,5.375,0,0,0-1.929,1.427,4.607,4.607,0,0,0-.781,1.327c-.123.335-.145.524-.123.524a8.085,8.085,0,0,1,1.115-1.651,5.252,5.252,0,0,1,1.874-1.26,4.773,4.773,0,0,1,2.855-.245h0l1.327.535h0a4.963,4.963,0,0,1,2.152,5.509,4.818,4.818,0,0,1-4.271,3.29,4.461,4.461,0,0,1-4.059-1.918,5.23,5.23,0,0,1-1-3.022A2.721,2.721,0,0,1,158.343,419.853Z" transform="translate(-100.031 -49.702)" fill="#263238"/>
    <path id="Trazado_54" data-name="Trazado 54" d="M184.442,311.609a10.128,10.128,0,0,0,.145-1.8c.067-1.115.178-2.81.413-4.851a92.159,92.159,0,0,1,3.346-15.725,120.443,120.443,0,0,1,5.576-15.067c.848-1.874,1.55-3.346,2.063-4.461a11.263,11.263,0,0,0,.714-1.651,12.615,12.615,0,0,0-.926,1.55c-.569,1-1.316,2.5-2.23,4.349a104.825,104.825,0,0,0-5.777,15.089,80.441,80.441,0,0,0-3.134,15.836c-.19,2.063-.245,3.736-.234,4.9a11.375,11.375,0,0,0,.045,1.829Z" transform="translate(-157.769 -66.764)" fill="#263238"/>
    <g id="Grupo_33" data-name="Grupo 33" transform="translate(55.951 180.394)" opacity="0.3">
      <path id="Trazado_55" data-name="Trazado 55" d="M172.535,285.5c-1.874-10.416-13.316-18.747-23.9-18.68q.535-3.078,1.115-6.156L139.245,264.9c-1.7-5.152,1.115-11.063,5.721-13.963s10.349-1.271,15.613,0c-.836,3.558-2.052,5.074-2.9,8.632,9.39,2.23,15.613,16.561,14.877,25.973" transform="translate(-138.747 -249.318)"/>
    </g>
    <path id="Trazado_56" data-name="Trazado 56" d="M183.01,429.111a2.543,2.543,0,0,0,.29-.647c.19-.48.424-1.115.714-1.885l2.532-6.959,8.141-23.063c3.178-9,6.134-17.13,8.331-22.985,1.115-2.877,1.952-5.242,2.6-6.948l.691-1.885a3.422,3.422,0,0,0,.2-.68,3.056,3.056,0,0,0-.312.636c-.212.48-.468,1.115-.792,1.851-.68,1.617-1.628,3.959-2.777,6.87-2.23,5.833-5.308,13.94-8.487,22.951s-5.978,17.186-7.985,23.107c-.97,2.922-1.773,5.308-2.353,7.037-.245.781-.457,1.416-.613,1.918a4.217,4.217,0,0,0-.178.68Z" transform="translate(-166.05 -55.703)" fill="#263238"/>
    <path id="Trazado_57" data-name="Trazado 57" d="M164.7,483.125a6.282,6.282,0,0,0,.435-.792c.279-.58.658-1.349,1.115-2.32.993-2.019,2.364-4.963,4-8.632,3.346-7.327,7.572-17.587,11.621-29.163s7.082-22.3,9.067-30.111c.993-3.892,1.751-7.048,2.23-9.245.234-1.048.424-1.9.558-2.52a6.516,6.516,0,0,0,.156-.892,4.562,4.562,0,0,0-.268.859c-.167.625-.39,1.461-.658,2.5-.558,2.23-1.372,5.331-2.42,9.2-2.085,7.751-5.175,18.412-9.212,29.977s-8.253,21.825-11.442,29.185c-1.606,3.68-2.922,6.691-3.836,8.7-.446.993-.792,1.784-1.048,2.375a4.094,4.094,0,0,0-.3.881Z" transform="translate(-133.008 -51.626)" fill="#263238"/>
    <path id="Trazado_58" data-name="Trazado 58" d="M86.386,246.69s15.9,12.267,19.126,39.166-2.822,61.549-2.822,61.549l-2.007,23.732s2.409,12.858-2.409,22.1,0,15.29-14.5,19.706-14.074,10.037-31.36,7.238-24.535-14.5-24.535-14.5l18.925-42.668s.8-5.018,10.037-.8l4.874-61.883S78.122,249.344,86.386,246.69Z" transform="translate(107.001 -69.227)" fill="#455a64"/>
    <path id="Trazado_59" data-name="Trazado 59" d="M61.943,300.332a7.776,7.776,0,0,1-.123,1.115c-.123.747-.156,1.818-.279,3.223-.234,2.844-.58,7.015-1.026,12.357-.859,10.74-2.1,26.208-3.613,45.233l.3-.178a19.227,19.227,0,0,0-5.353-1.662,6.212,6.212,0,0,0-2.978.312,3.346,3.346,0,0,0-2.074,2.286v-.056l-18.959,42.6-.067.145.089.112c5.487,7.807,14.71,12.97,24.747,14.621a54.2,54.2,0,0,0,7.65.736A23.276,23.276,0,0,0,68,420.062a64.152,64.152,0,0,0,7.16-3.346,58.234,58.234,0,0,1,7.3-3.033,57.327,57.327,0,0,0,6.2-2.23,13.639,13.639,0,0,0,5.175-4.059,16.539,16.539,0,0,0,2.23-6.1,33.28,33.28,0,0,1,1.74-6.067,47.888,47.888,0,0,0,2.453-5.821,32.563,32.563,0,0,0,1.216-6.145,46.984,46.984,0,0,0-.368-12.212v.078q1.037-12.267,2-23.732h0a283.91,283.91,0,0,0,3.691-42.936,151.8,151.8,0,0,0-.9-18.122,74.842,74.842,0,0,0-3.346-15.1,61.1,61.1,0,0,0-5.2-11.409,57.1,57.1,0,0,0-5.3-7.628,49.446,49.446,0,0,0-3.959-4.227c-.491-.435-.859-.769-1.115-.97a3.483,3.483,0,0,0-.4-.312l.379.346c.245.212.613.558,1.115,1a51.472,51.472,0,0,1,3.881,4.271,56.583,56.583,0,0,1,5.219,7.662,62.039,62.039,0,0,1,5.108,11.386,75.355,75.355,0,0,1,3.346,15.044,153.9,153.9,0,0,1,.848,18.078,287.938,287.938,0,0,1-3.781,42.847h0q-.97,11.42-2.03,23.721v.078a46.271,46.271,0,0,1,.312,12.078,31.224,31.224,0,0,1-1.193,6.033A48.211,48.211,0,0,1,97.341,395a35.934,35.934,0,0,0-1.773,6.156,15.926,15.926,0,0,1-2.164,5.9,13.093,13.093,0,0,1-4.952,3.914,59.5,59.5,0,0,1-6.123,2.23,57.169,57.169,0,0,0-7.383,3.067,66.484,66.484,0,0,1-7.093,3.29c-4.907,1.673-10.171,1.115-15.111.346a40.717,40.717,0,0,1-13.884-4.929,34.786,34.786,0,0,1-5.81-4.2,28.249,28.249,0,0,1-4.684-5.208v.256l18.881-42.668V363.1A2.855,2.855,0,0,1,49,361.134a5.866,5.866,0,0,1,2.743-.29,19.293,19.293,0,0,1,5.23,1.606l.29.123v-.3c1.439-19.037,2.61-34.5,3.424-45.244.39-5.353.7-9.524.9-12.368.1-1.405.178-2.476.223-3.223A6.753,6.753,0,0,1,61.943,300.332Z" transform="translate(106.775 -69.227)" fill="#263238"/>
    <path id="Trazado_60" data-name="Trazado 60" d="M75.263,373.395A6.29,6.29,0,0,0,75,371.878a24.659,24.659,0,0,0-1.327-3.959,28.048,28.048,0,0,0-8.353-10.9,31.783,31.783,0,0,0-12.267-6.268,19.662,19.662,0,0,0-4.149-.535,7.664,7.664,0,0,0-1.539.089,34.89,34.89,0,0,1,5.576.848A33.456,33.456,0,0,1,64.9,357.481a29.151,29.151,0,0,1,8.342,10.606A50.144,50.144,0,0,1,75.263,373.395Z" transform="translate(116.474 -57.299)" fill="#263238"/>
    <path id="Trazado_61" data-name="Trazado 61" d="M61.442,402.911a2.231,2.231,0,0,0,.591-.257,18.4,18.4,0,0,0,1.628-.937,26.32,26.32,0,0,0,5.23-4.461,36.948,36.948,0,0,0,5.688-8.476,75.494,75.494,0,0,0,4.461-11.665c1.294-4.2,2.476-8.375,2.23-12.267a13.037,13.037,0,0,0-1.472-5.309,16.26,16.26,0,0,0-3.011-3.714,39.174,39.174,0,0,0-5.465-4.182c-.68-.446-1.216-.781-1.584-.993a3,3,0,0,0-.58-.312,2.7,2.7,0,0,0,.513.413l1.528,1.115a45.207,45.207,0,0,1,5.3,4.294,16.138,16.138,0,0,1,2.877,3.658,12.725,12.725,0,0,1,1.3,5.03c.234,3.792-.914,7.885-2.23,12.089a79.461,79.461,0,0,1-4.383,11.6,37.538,37.538,0,0,1-5.52,8.431,28.225,28.225,0,0,1-5.041,4.561C62.211,402.454,61.408,402.867,61.442,402.911Z" transform="translate(94.731 -57.284)" fill="#263238"/>
    <path id="Trazado_62" data-name="Trazado 62" d="M69.322,262.79a8.3,8.3,0,0,0-1.193,1.115c-.747.714-1.84,1.717-3.234,2.911-2.755,2.431-6.847,5.465-11.007,9.29a36.212,36.212,0,0,0-8.7,11.453,20.509,20.509,0,0,0-1.349,4.171,8.921,8.921,0,0,0-.19,1.182v.413a33.724,33.724,0,0,1,1.94-5.576,38.085,38.085,0,0,1,8.721-11.219c4.115-3.792,8.175-6.881,10.885-9.4,1.361-1.249,2.42-2.3,3.111-3.067A8.465,8.465,0,0,0,69.322,262.79Z" transform="translate(126.552 -67.372)" fill="#263238"/>
    <g id="Grupo_34" data-name="Grupo 34" transform="translate(160.781 313.174)" opacity="0.3">
      <path id="Trazado_63" data-name="Trazado 63" d="M62.2,397.175a33.836,33.836,0,0,0,9.011-13.606,95.24,95.24,0,0,0,4.885-15.189l.234.1c1.416,6.781-1.517,13.226-3.769,19.8a22.416,22.416,0,0,1-3.691,7.561c-1.829,2.141-4.762,3.569-7.472,2.81C61.273,398.067,61.764,397.543,62.2,397.175Z" transform="translate(-61.377 -368.38)"/>
    </g>
    <path id="Trazado_64" data-name="Trazado 64" d="M136.734,358.344,79.78,324.82,76.1,358.277l47.23,37.137s7.394-10.807,9.859-18.959A118.363,118.363,0,0,0,136.734,358.344Z" transform="translate(22.951 -60.224)" fill="#996964"/>
    <path id="Trazado_65" data-name="Trazado 65" d="M194.357,327.058l-23.42-18.892a4.639,4.639,0,0,0-2.922-1.026l-32.732.078a2.487,2.487,0,0,0-2.487,2.353,4.461,4.461,0,0,0,1.115,3.569l49.739,41.018L223.5,351.18Z" transform="translate(-127.001 -62.262)" fill="#e0e0e0"/>
    <path id="Trazado_66" data-name="Trazado 66" d="M172.626,326.244s-12.591-11.052-15.691-11.866-17.286-1.918-17.286-1.918l-12.479,5.821,6.959,5.576c5.219-.7,6.859-2.576,6.859-2.576l8.2,1.238Z" transform="translate(-69.895 -61.649)" fill="#996964"/>
    <path id="Trazado_67" data-name="Trazado 67" d="M179.844,319.82l-21.836,5.52-30.814,1.773s-.7,6.156,5.5,7.349c3.647.691,10.037,1.673,10.037,1.673s1.115,5.732,5.71,7.372c0,0,1.74,4.126,4.149,5.8a4.327,4.327,0,0,0,.892.48c2.866,1.115,8.03,9.513,11.844,10.907s25.55-1.851,25.55-1.851l3.68-33.457Z" transform="translate(-91.822 -60.801)" fill="#996964"/>
    <path id="Trazado_68" data-name="Trazado 68" d="M177.7,334.942c0-.1-1.706.212-4.461.524a81.557,81.557,0,0,1-10.773.513,79.546,79.546,0,0,1-10.74-.914c-2.732-.424-4.405-.8-4.461-.714a4.46,4.46,0,0,0,1.115.39c.747.212,1.84.468,3.2.736a64.33,64.33,0,0,0,10.806,1.115,65.5,65.5,0,0,0,10.84-.68c1.372-.212,2.476-.424,3.234-.6A5.05,5.05,0,0,0,177.7,334.942Z" transform="translate(-97.389 -59.128)" fill="#784d48"/>
    <path id="Trazado_69" data-name="Trazado 69" d="M142.37,342.36a4.7,4.7,0,0,0,0,2.108,4.327,4.327,0,0,0,.97,2.152,3.7,3.7,0,0,0,2.665,1.115,6.938,6.938,0,0,0,2.81-.558c.8-.335,1.483-.68,2.063-.948,1.115-.558,1.907-.747,1.9-.836a4.461,4.461,0,0,0-2.063.457,12.747,12.747,0,0,1-4.684,1.3,3.245,3.245,0,0,1-2.3-.926,4.071,4.071,0,0,1-.959-1.874A19.63,19.63,0,0,0,142.37,342.36Z" transform="translate(-66.861 -58.204)" fill="#784d48"/>
    <path id="Trazado_70" data-name="Trazado 70" d="M151.4,343.062a8.532,8.532,0,0,0,2.23.781,50.63,50.63,0,0,0,5.654,1.171,48.561,48.561,0,0,0,5.743.558,9.246,9.246,0,0,0,2.4-.067c0-.178-3.624-.379-8.052-1.059S151.445,342.895,151.4,343.062Z" transform="translate(-91.716 -58.125)" fill="#784d48"/>
    <path id="Trazado_71" data-name="Trazado 71" d="M145.57,352.152a5.944,5.944,0,0,0,3.346,1.807,5.822,5.822,0,0,0,3.825-.078c0-.167-1.706,0-3.68-.48S145.648,351.985,145.57,352.152Z" transform="translate(-70.53 -57.078)" fill="#784d48"/>
    <path id="Trazado_72" data-name="Trazado 72" d="M154.72,351.235a5.179,5.179,0,0,0,2.23.792,5.052,5.052,0,0,0,2.364.223,5.255,5.255,0,0,0-2.23-.792A5.007,5.007,0,0,0,154.72,351.235Z" transform="translate(-87.308 -57.187)" fill="#784d48"/>
    <path id="Trazado_73" data-name="Trazado 73" d="M141.89,325.382c.056.234,4.65-.836,10.2-2.487,2.788-.825,5.286-1.628,7.082-2.23a12.579,12.579,0,0,0,2.844-1.2,21.633,21.633,0,0,0-2.966.8l-7.115,2.108-7.115,2.108A28.394,28.394,0,0,0,141.89,325.382Z" transform="translate(-75.705 -60.842)" fill="#784d48"/>
    <path id="Trazado_74" data-name="Trazado 74" d="M185.692,329.979s2.42-.625.19-4.539-9.68,0-9.68,0l-9.513,4.65s-2.42,4.539,0,5.989l1.673,2.453s-3.836,3.279-2.665,6.546a4.873,4.873,0,0,0,4.7,3.1s-.937,6.312.926,8.922a6.9,6.9,0,0,0,3.714,2.989,11.4,11.4,0,0,0,7.26,7.461c5.955,2.052,9.122,2.431,10.985,0a28.081,28.081,0,0,0,3.178-5.576s13.606-5.766,14.174-9.212,0-3.814,0-3.814,1.294-2.8.145-5.03-6.468-.8-6.468-.8l-16.951,2.52s13.818-5.152,15.613-7.07.268-4.55-5.141-4.361-21.791,1.885-21.791,1.885a4.94,4.94,0,0,1,2.052-1.907c1.115-.368,4.617-2.041,4.617-2.041Z" transform="translate(-151.234 -60.354)" fill="#996964"/>
    <path id="Trazado_75" data-name="Trazado 75" d="M166.33,352.226c0,.156,6.926-1,15.39-2.587s15.3-3.011,15.279-3.167-6.914,1-15.39,2.587S166.308,352.07,166.33,352.226Z" transform="translate(-137.939 -57.731)" fill="#784d48"/>
    <path id="Trazado_76" data-name="Trazado 76" d="M178.7,360.63a20.688,20.688,0,0,0,4.974-.848c1.349-.335,2.565-.68,3.424-.993a6.023,6.023,0,0,0,1-.446,1.025,1.025,0,0,0,.257-.2c.067-.067,0-.156,0-.123s-2.13.535-4.818,1.193a24.768,24.768,0,0,0-4.84,1.416Z" transform="translate(-143.131 -56.4)" fill="#784d48"/>
    <path id="Trazado_77" data-name="Trazado 77" d="M185.74,344.742c0,.167,3.346-.223,7.405-.546s7.383-.491,7.383-.658a33.459,33.459,0,0,0-7.439.078,33.456,33.456,0,0,0-7.349,1.126Z" transform="translate(-163.115 -58.087)" fill="#784d48"/>
    <path id="Trazado_78" data-name="Trazado 78" d="M195.85,336.8c.089.145,1.494-.669,3.346-1.171s3.5-.535,3.513-.7a6.033,6.033,0,0,0-3.658.134A6.234,6.234,0,0,0,195.85,336.8Z" transform="translate(-176.571 -59.086)" fill="#784d48"/>
    <path id="Trazado_79" data-name="Trazado 79" d="M164.16,309.931a2.454,2.454,0,0,0,.613,0l1.762-.067c1.517-.067,3.714-.178,6.435-.257,5.431-.167,12.948-.2,21.189.29,2.052.145,4.137.112,5.732,1.115a23.786,23.786,0,0,1,2.23,1.762l2.108,1.784,7.327,6.134,4.974,4.1,1.372,1.115c.323.245.491.368.513.346a2.443,2.443,0,0,0-.435-.435l-1.294-1.182-4.862-4.238-7.249-6.234-2.1-1.8a24.06,24.06,0,0,0-2.286-1.818,7.261,7.261,0,0,0-2.911-1.015c-1.026-.145-2.052-.178-3.089-.245a201.742,201.742,0,0,0-21.29-.123c-2.721.134-4.918.3-6.435.446l-1.74.178a2.32,2.32,0,0,0-.569.134Z" transform="translate(-156.936 -62.053)" fill="#263238"/>
    <path id="Trazado_80" data-name="Trazado 80" d="M192,314a1.617,1.617,0,0,1,1.628-.48h-.067l.257.078h.1a2.231,2.231,0,0,1,1.216.825,1.349,1.349,0,0,1-.1,1.717,1.562,1.562,0,0,1-.937.346,2.23,2.23,0,0,1-1.851-.625A1.561,1.561,0,0,1,192,314Z" transform="translate(-164.734 -61.533)" fill="#fff"/>
  </g>
</svg>
